<?xml version="1.0" encoding="utf-8"?>
<!-- Generator: Adobe Illustrator 26.0.3, SVG Export Plug-In . SVG Version: 6.00 Build 0)  -->
<svg version="1.1" id="Capa_1" xmlns="http://www.w3.org/2000/svg" xmlns:xlink="http://www.w3.org/1999/xlink" x="0px" y="0px"
	 viewBox="0 0 108.1 105.5" style="enable-background:new 0 0 108.1 105.5;" xml:space="preserve">
<style type="text/css">
	.st0{fill:#426EAB;}
	.st1{fill:#FCB61A;}
	.st2{fill:#1C3D6F;}
	.st3{clip-path:url(#SVGID_00000169521400991181944800000005341167219542359718_);}
	.st4{fill:#1B3E6F;}
	.st5{fill:#E25C28;}
	.st6{fill:#3B6EAD;}
	.st7{fill:#ED273A;}
	.st8{fill:#30BBAD;}
	.st9{fill:#1F99BE;}
	.st10{fill:#71C499;}
	.st11{fill:#249A8D;}
	.st12{fill:#B1202A;}
	.st13{fill:#1C3C6D;}
	.st14{clip-path:url(#SVGID_00000117665549603050645840000015088057464428363649_);}
	.st15{fill:#E15B29;}
	.st16{fill:none;stroke:#E15B29;stroke-miterlimit:10;}
	.st17{fill:none;stroke:#FCB61A;stroke-miterlimit:10;}
	.st18{clip-path:url(#SVGID_00000109738720980172246270000013132635031912693653_);}
	.st19{clip-path:url(#SVGID_00000121262119221435783420000000544596060275020169_);}
	.st20{clip-path:url(#SVGID_00000163062465414939713200000010859929560141924278_);}
</style>
<g>
	<g>
		<g>
			<g>
				<g>
					<circle class="st0" cx="-624.6" cy="79.5" r="1.1"/>
				</g>
				<g>
					<circle class="st0" cx="-631.6" cy="71.9" r="1.1"/>
				</g>
				<g>
					<circle class="st0" cx="-622.5" cy="73.3" r="0.5"/>
				</g>
				<g>
					<circle class="st0" cx="-624.9" cy="70.7" r="0.5"/>
				</g>
			</g>
			<g>
				<g>
					<path class="st0" d="M-624.6,82.1c0,0-0.1,0-0.1,0c-0.7,0-1.3-0.3-1.8-0.9c-1-1.1-0.9-2.7,0.2-3.7c0.5-0.5,1.2-0.7,1.9-0.7
						c0.7,0,1.3,0.3,1.8,0.9c0.5,0.5,0.7,1.2,0.7,1.9c0,0.7-0.3,1.3-0.9,1.8C-623.3,81.9-624,82.1-624.6,82.1z M-624.6,77.4
						c-0.5,0-1,0.2-1.4,0.6c-0.9,0.8-0.9,2.1-0.1,3c0.4,0.4,0.9,0.7,1.5,0.7c0.6,0,1.1-0.2,1.5-0.5c0.4-0.4,0.7-0.9,0.7-1.5
						c0-0.6-0.2-1.1-0.5-1.5c-0.4-0.4-0.9-0.7-1.5-0.7C-624.5,77.4-624.6,77.4-624.6,77.4z"/>
				</g>
				<g>
					<polygon class="st0" points="-622.7,78.1 -623,77.7 -617.1,72.4 -613,72.6 -605.3,65.6 -604.9,65.9 -612.8,73.1 -616.9,72.9 
											"/>
				</g>
				<g>
					<path class="st0" d="M-631.5,74.5c0,0-0.1,0-0.1,0c-0.7,0-1.3-0.3-1.8-0.9c-0.5-0.5-0.7-1.2-0.7-1.9c0-0.7,0.3-1.3,0.9-1.8
						c1.1-1,2.7-0.9,3.7,0.2c0.5,0.5,0.7,1.2,0.7,1.9c0,0.7-0.3,1.3-0.9,1.8C-630.2,74.3-630.9,74.5-631.5,74.5z M-631.5,69.8
						c-0.5,0-1,0.2-1.4,0.6c-0.4,0.4-0.7,0.9-0.7,1.5c0,0.6,0.2,1.1,0.5,1.5c0.4,0.4,0.9,0.7,1.5,0.7c0.6,0,1.1-0.2,1.5-0.5l0,0
						c0.4-0.4,0.7-0.9,0.7-1.5c0-0.6-0.2-1.1-0.5-1.5C-630.4,70-630.9,69.8-631.5,69.8z"/>
				</g>
				<g>
					<polygon class="st0" points="-629.6,70.5 -629.9,70.1 -624.2,64.9 -624,60.7 -616.5,53.9 -616.2,54.3 -623.5,61 -623.7,65.1 
											"/>
				</g>
				<g>
					<g>
						<polygon class="st0" points="-623.8,70.1 -624.1,69.7 -618,64.2 -614.2,64.5 -608.3,59 -607.9,59.4 -614,65 -617.9,64.7 
													"/>
					</g>
				</g>
				<g>
					<path class="st0" d="M-622.4,74.8c-0.4,0-0.8-0.2-1.1-0.5c-0.5-0.6-0.5-1.5,0.1-2c0.6-0.5,1.5-0.5,2,0.1c0.5,0.6,0.5,1.5-0.1,2
						h0C-621.7,74.7-622.1,74.8-622.4,74.8z M-622.4,72.4c-0.2,0-0.5,0.1-0.6,0.2c-0.4,0.3-0.4,0.9-0.1,1.3c0.3,0.4,0.9,0.4,1.3,0.1
						c0.4-0.3,0.4-0.9,0.1-1.3C-621.9,72.5-622.2,72.4-622.4,72.4z"/>
				</g>
				<g>
					<path class="st0" d="M-624.9,72.1c-0.4,0-0.8-0.2-1.1-0.5c-0.5-0.6-0.5-1.5,0.1-2c0.6-0.5,1.5-0.5,2,0.1c0.5,0.6,0.5,1.5-0.1,2
						h0C-624.2,72-624.5,72.1-624.9,72.1z M-624.9,69.7c-0.2,0-0.5,0.1-0.6,0.2c-0.4,0.3-0.4,0.9-0.1,1.3c0.3,0.4,0.9,0.4,1.3,0.1
						c0.4-0.3,0.4-0.9,0.1-1.3C-624.4,69.8-624.6,69.7-624.9,69.7z"/>
				</g>
				<g>
					<polygon class="st0" points="-621.4,72.7 -621.7,72.3 -615.8,66.9 -615.8,63.1 -610,57.8 -609.6,58.2 -615.3,63.3 -615.3,67.1 
											"/>
				</g>
			</g>
		</g>
		<g>
			<g>
				<circle class="st0" cx="-622" cy="65.5" r="0.5"/>
			</g>
			<g>
				<path class="st0" d="M-622,66.9c-0.4,0-0.8-0.2-1-0.5c-0.5-0.6-0.5-1.5,0.1-2l0,0c0.3-0.3,0.6-0.4,1-0.4c0.4,0,0.7,0.2,1,0.5
					s0.4,0.6,0.4,1c0,0.4-0.2,0.7-0.5,1C-621.4,66.8-621.7,66.9-622,66.9z M-622.7,64.8L-622.7,64.8c-0.4,0.4-0.4,1-0.1,1.4
					c0.4,0.4,1,0.4,1.4,0.1c0.2-0.2,0.3-0.4,0.3-0.7c0-0.3-0.1-0.5-0.3-0.7c-0.2-0.2-0.4-0.3-0.7-0.3
					C-622.3,64.5-622.5,64.6-622.7,64.8z"/>
			</g>
			<g>
				<polygon class="st0" points="-621,64.9 -621.3,64.6 -618.2,61.8 -616.1,61.9 -614.2,60.2 -613.9,60.5 -615.9,62.3 -618.1,62.2 
									"/>
			</g>
		</g>
		<g>
			<g>
				<path class="st0" d="M-616.9,72.2C-616.9,72.2-616.9,72.2-616.9,72.2c-0.4,0-0.8-0.2-1-0.5c-0.3-0.3-0.4-0.6-0.4-1
					c0-0.4,0.2-0.7,0.5-1c0.6-0.5,1.5-0.5,2,0.1c0.5,0.6,0.5,1.5-0.1,2l0,0C-616.2,72-616.5,72.2-616.9,72.2z M-616.9,69.7
					c-0.2,0-0.5,0.1-0.7,0.3c-0.2,0.2-0.3,0.4-0.3,0.7c0,0.3,0.1,0.5,0.3,0.7c0.2,0.2,0.4,0.3,0.7,0.3c0.3,0,0.5-0.1,0.7-0.3l0,0
					c0.4-0.4,0.4-1,0.1-1.4C-616.3,69.8-616.6,69.7-616.9,69.7z"/>
			</g>
			<g>
				<circle class="st0" cx="-616.9" cy="70.7" r="0.5"/>
			</g>
			<g>
				<polygon class="st0" points="-615.9,70.1 -616.1,69.8 -613.2,67.1 -613.1,65 -611.1,63.2 -610.9,63.5 -612.7,65.1 -612.8,67.3 
									"/>
			</g>
		</g>
	</g>
	<g>
		<g>
			<path class="st1" d="M-675.7,121.3c-0.5,0-1-0.2-1.4-0.7c-0.3-0.4-0.5-0.8-0.4-1.3c0-0.5,0.3-0.9,0.6-1.2
				c0.8-0.6,1.9-0.5,2.6,0.2c0.6,0.8,0.5,1.9-0.2,2.6l0,0C-674.9,121.2-675.3,121.3-675.7,121.3z M-675.7,118.2
				c-0.3,0-0.6,0.1-0.8,0.3c-0.3,0.2-0.4,0.5-0.5,0.9s0.1,0.7,0.3,1c0.5,0.6,1.3,0.6,1.9,0.2l0,0c0.3-0.2,0.4-0.5,0.5-0.9
				s-0.1-0.7-0.3-1C-674.9,118.3-675.3,118.2-675.7,118.2z"/>
		</g>
		<g>
			<polygon class="st1" points="-684.1,124.2 -684.4,123.9 -683.7,123.3 -681,123.5 -677.1,120.3 -676.7,120.7 -680.8,124 
				-683.6,123.8 			"/>
		</g>
		<g>
			<circle class="st1" cx="-675.7" cy="119.4" r="0.7"/>
		</g>
	</g>
	<g>
		<g>
			<path class="st1" d="M-680.9,114.9c-0.5,0-1-0.2-1.4-0.7c-0.6-0.8-0.5-1.9,0.2-2.6l0,0c0.8-0.6,1.9-0.5,2.6,0.2
				c0.3,0.4,0.5,0.8,0.4,1.3c0,0.5-0.3,0.9-0.6,1.2C-680.1,114.8-680.5,114.9-680.9,114.9z M-681.8,112.1L-681.8,112.1
				c-0.6,0.5-0.6,1.3-0.2,1.9c0.5,0.6,1.3,0.6,1.9,0.2c0.3-0.2,0.4-0.5,0.5-0.9s-0.1-0.7-0.3-1
				C-680.4,111.7-681.2,111.6-681.8,112.1z"/>
		</g>
		<g>
			<polygon class="st1" points="-686.9,121 -687.2,120.6 -686.6,120.1 -686.3,117.3 -682.3,113.9 -682,114.3 -685.9,117.6 
				-686.1,120.3 			"/>
		</g>
		<g>
			<circle class="st1" cx="-680.9" cy="113.1" r="0.7"/>
		</g>
	</g>
	<g>
		<g>
			<path class="st2" d="M-584.8,83.9h5.1v3h-8.9V71h3.9V83.9z"/>
			<path class="st2" d="M-577.9,77.1c0.5-1,1.2-1.7,2-2.3c0.8-0.5,1.8-0.8,2.8-0.8c0.9,0,1.7,0.2,2.3,0.5s1.2,0.8,1.5,1.4v-1.8h3.9
				v12.6h-3.9v-1.8c-0.4,0.6-0.9,1.1-1.6,1.4s-1.5,0.5-2.3,0.5c-1,0-2-0.3-2.8-0.8c-0.8-0.5-1.5-1.3-2-2.3c-0.5-1-0.7-2.1-0.7-3.4
				C-578.7,79.2-578.4,78.1-577.9,77.1z M-570,78.3c-0.5-0.6-1.2-0.8-2-0.8c-0.8,0-1.4,0.3-2,0.8c-0.5,0.6-0.8,1.3-0.8,2.3
				c0,1,0.3,1.7,0.8,2.3c0.5,0.6,1.2,0.8,2,0.8c0.8,0,1.4-0.3,2-0.8c0.5-0.6,0.8-1.3,0.8-2.3S-569.5,78.8-570,78.3z"/>
			<path class="st2" d="M-557.1,74.6c0.7-0.4,1.5-0.5,2.3-0.5c1,0,2,0.3,2.8,0.8c0.8,0.5,1.5,1.3,2,2.3c0.5,1,0.7,2.1,0.7,3.4
				c0,1.3-0.2,2.4-0.7,3.4c-0.5,1-1.2,1.7-2,2.3c-0.8,0.5-1.8,0.8-2.8,0.8c-0.9,0-1.7-0.2-2.3-0.5c-0.7-0.4-1.2-0.8-1.6-1.4v1.8
				h-3.9V70.1h3.9V76C-558.3,75.4-557.8,75-557.1,74.6z M-554,78.3c-0.5-0.6-1.2-0.8-2-0.8c-0.8,0-1.4,0.3-2,0.8
				c-0.5,0.6-0.8,1.3-0.8,2.3s0.3,1.7,0.8,2.3c0.5,0.6,1.2,0.8,2,0.8c0.8,0,1.4-0.3,2-0.8s0.8-1.3,0.8-2.3
				C-553.2,79.6-553.4,78.8-554,78.3z"/>
			<path class="st2" d="M-544.8,86.3c-1-0.5-1.8-1.3-2.3-2.3c-0.6-1-0.8-2.1-0.8-3.4c0-1.3,0.3-2.4,0.9-3.4c0.6-1,1.4-1.7,2.4-2.3
				s2.1-0.8,3.3-0.8s2.4,0.3,3.3,0.8s1.8,1.3,2.4,2.3c0.6,1,0.9,2.1,0.9,3.4s-0.3,2.4-0.9,3.4c-0.6,1-1.4,1.7-2.4,2.3
				c-1,0.5-2.1,0.8-3.4,0.8C-542.7,87-543.8,86.8-544.8,86.3z M-539.5,82.9c0.5-0.5,0.8-1.3,0.8-2.3s-0.3-1.8-0.8-2.3
				c-0.5-0.5-1.1-0.8-1.9-0.8c-0.8,0-1.4,0.3-1.9,0.8c-0.5,0.5-0.7,1.3-0.7,2.3c0,1,0.2,1.8,0.7,2.3c0.5,0.5,1.1,0.8,1.8,0.8
				C-540.7,83.7-540.1,83.4-539.5,82.9z"/>
			<path class="st2" d="M-527.2,74.7c0.7-0.4,1.4-0.6,2.3-0.6v4.1h-1.1c-1,0-1.7,0.2-2.2,0.6c-0.5,0.4-0.7,1.1-0.7,2.2v5.9h-3.9
				V74.2h3.9v2.1C-528.5,75.7-527.9,75.1-527.2,74.7z"/>
			<path class="st2" d="M-523.1,77.1c0.5-1,1.2-1.7,2-2.3c0.8-0.5,1.8-0.8,2.8-0.8c0.9,0,1.7,0.2,2.3,0.5s1.2,0.8,1.5,1.4v-1.8h3.9
				v12.6h-3.9v-1.8c-0.4,0.6-0.9,1.1-1.6,1.4s-1.5,0.5-2.3,0.5c-1,0-2-0.3-2.8-0.8c-0.8-0.5-1.5-1.3-2-2.3c-0.5-1-0.7-2.1-0.7-3.4
				C-523.9,79.2-523.6,78.1-523.1,77.1z M-515.2,78.3c-0.5-0.6-1.2-0.8-2-0.8c-0.8,0-1.4,0.3-2,0.8c-0.5,0.6-0.8,1.3-0.8,2.3
				c0,1,0.3,1.7,0.8,2.3c0.5,0.6,1.2,0.8,2,0.8c0.8,0,1.4-0.3,2-0.8c0.5-0.6,0.8-1.3,0.8-2.3S-514.7,78.8-515.2,78.3z"/>
			<path class="st2" d="M-500.7,83.6v3.3h-2c-1.4,0-2.5-0.3-3.3-1c-0.8-0.7-1.2-1.8-1.2-3.4v-5h-1.5v-3.2h1.5v-3.1h3.9v3.1h2.5v3.2
				h-2.5v5.1c0,0.4,0.1,0.6,0.3,0.8c0.2,0.2,0.5,0.2,0.9,0.2H-500.7z"/>
			<path class="st2" d="M-496.1,86.3c-1-0.5-1.8-1.3-2.3-2.3c-0.6-1-0.8-2.1-0.8-3.4c0-1.3,0.3-2.4,0.9-3.4c0.6-1,1.4-1.7,2.4-2.3
				c1-0.5,2.1-0.8,3.3-0.8s2.4,0.3,3.3,0.8c1,0.5,1.8,1.3,2.4,2.3c0.6,1,0.9,2.1,0.9,3.4s-0.3,2.4-0.9,3.4c-0.6,1-1.4,1.7-2.4,2.3
				c-1,0.5-2.1,0.8-3.4,0.8S-495.2,86.8-496.1,86.3z M-490.9,82.9c0.5-0.5,0.8-1.3,0.8-2.3s-0.3-1.8-0.8-2.3
				c-0.5-0.5-1.1-0.8-1.9-0.8c-0.8,0-1.4,0.3-1.9,0.8c-0.5,0.5-0.7,1.3-0.7,2.3c0,1,0.2,1.8,0.7,2.3c0.5,0.5,1.1,0.8,1.8,0.8
				S-491.4,83.4-490.9,82.9z"/>
			<path class="st2" d="M-478.6,74.7c0.7-0.4,1.4-0.6,2.3-0.6v4.1h-1.1c-1,0-1.7,0.2-2.2,0.6c-0.5,0.4-0.7,1.1-0.7,2.2v5.9h-3.9
				V74.2h3.9v2.1C-479.8,75.7-479.3,75.1-478.6,74.7z"/>
			<path class="st2" d="M-474.2,72.3c-0.4-0.4-0.6-0.9-0.6-1.5c0-0.6,0.2-1.1,0.6-1.5s1-0.6,1.7-0.6c0.7,0,1.2,0.2,1.6,0.6
				s0.6,0.9,0.6,1.5c0,0.6-0.2,1.1-0.6,1.5c-0.4,0.4-1,0.6-1.6,0.6C-473.2,72.9-473.8,72.7-474.2,72.3z M-470.6,74.2v12.6h-3.9V74.2
				H-470.6z"/>
			<path class="st2" d="M-465.4,86.3c-1-0.5-1.8-1.3-2.3-2.3c-0.6-1-0.8-2.1-0.8-3.4c0-1.3,0.3-2.4,0.9-3.4c0.6-1,1.4-1.7,2.4-2.3
				c1-0.5,2.1-0.8,3.3-0.8s2.4,0.3,3.3,0.8c1,0.5,1.8,1.3,2.4,2.3c0.6,1,0.9,2.1,0.9,3.4s-0.3,2.4-0.9,3.4c-0.6,1-1.4,1.7-2.4,2.3
				c-1,0.5-2.1,0.8-3.4,0.8C-463.3,87-464.4,86.8-465.4,86.3z M-460.2,82.9c0.5-0.5,0.8-1.3,0.8-2.3s-0.3-1.8-0.8-2.3
				c-0.5-0.5-1.1-0.8-1.9-0.8c-0.8,0-1.4,0.3-1.9,0.8c-0.5,0.5-0.7,1.3-0.7,2.3c0,1,0.2,1.8,0.7,2.3c0.5,0.5,1.1,0.8,1.8,0.8
				C-461.3,83.7-460.7,83.4-460.2,82.9z"/>
			<path class="st2" d="M-448.6,77.1c0.5-1,1.2-1.7,2-2.3s1.8-0.8,2.8-0.8c0.8,0,1.6,0.2,2.3,0.5c0.7,0.3,1.2,0.8,1.6,1.4v-5.9h3.9
				v16.7h-3.9v-1.8c-0.4,0.6-0.9,1.1-1.5,1.4c-0.7,0.4-1.5,0.5-2.3,0.5c-1,0-2-0.3-2.8-0.8c-0.8-0.5-1.5-1.3-2-2.3
				c-0.5-1-0.7-2.1-0.7-3.4C-449.4,79.2-449.1,78.1-448.6,77.1z M-440.7,78.3c-0.5-0.6-1.2-0.8-2-0.8c-0.8,0-1.4,0.3-2,0.8
				c-0.5,0.6-0.8,1.3-0.8,2.3c0,1,0.3,1.7,0.8,2.3s1.2,0.8,2,0.8c0.8,0,1.4-0.3,2-0.8c0.5-0.6,0.8-1.3,0.8-2.3
				S-440.2,78.8-440.7,78.3z"/>
			<path class="st2" d="M-421.4,81.5h-8.8c0.1,0.8,0.3,1.4,0.8,1.8c0.4,0.4,1,0.6,1.6,0.6c1,0,1.6-0.4,2-1.2h4.1
				c-0.2,0.8-0.6,1.6-1.1,2.2c-0.6,0.7-1.2,1.2-2.1,1.6c-0.8,0.4-1.8,0.6-2.8,0.6c-1.2,0-2.3-0.3-3.3-0.8c-1-0.5-1.7-1.3-2.3-2.3
				c-0.5-1-0.8-2.1-0.8-3.4c0-1.3,0.3-2.5,0.8-3.4c0.5-1,1.3-1.7,2.2-2.3s2.1-0.8,3.3-0.8c1.2,0,2.3,0.3,3.3,0.8
				c0.9,0.5,1.7,1.2,2.2,2.2c0.5,0.9,0.8,2.1,0.8,3.3C-421.3,80.7-421.4,81.1-421.4,81.5z M-425.3,79.3c0-0.7-0.2-1.2-0.7-1.6
				s-1-0.6-1.7-0.6c-0.6,0-1.2,0.2-1.6,0.6c-0.4,0.4-0.7,0.9-0.8,1.6H-425.3z"/>
			<path class="st2" d="M-584.8,98.1V114h-3.9V98.1H-584.8z"/>
			<path class="st2" d="M-570.8,102.7c0.9,1,1.3,2.3,1.3,3.9v7.4h-3.8v-6.9c0-0.8-0.2-1.5-0.7-2c-0.4-0.5-1-0.7-1.8-0.7
				c-0.7,0-1.3,0.2-1.8,0.7c-0.4,0.5-0.7,1.1-0.7,2v6.9h-3.9v-12.6h3.9v1.7c0.4-0.6,0.9-1,1.6-1.3c0.7-0.3,1.4-0.5,2.2-0.5
				C-572.8,101.2-571.7,101.7-570.8,102.7z"/>
			<path class="st2" d="M-555.5,102.7c0.9,1,1.3,2.3,1.3,3.9v7.4h-3.8v-6.9c0-0.8-0.2-1.5-0.7-2c-0.4-0.5-1-0.7-1.8-0.7
				c-0.7,0-1.3,0.2-1.8,0.7c-0.4,0.5-0.7,1.1-0.7,2v6.9h-3.9v-12.6h3.9v1.7c0.4-0.6,0.9-1,1.6-1.3c0.7-0.3,1.4-0.5,2.2-0.5
				C-557.6,101.2-556.4,101.7-555.5,102.7z"/>
			<path class="st2" d="M-549.1,113.4c-1-0.5-1.8-1.3-2.3-2.3c-0.6-1-0.8-2.1-0.8-3.4c0-1.3,0.3-2.4,0.9-3.4c0.6-1,1.4-1.7,2.4-2.3
				s2.1-0.8,3.3-0.8s2.4,0.3,3.3,0.8s1.8,1.3,2.4,2.3c0.6,1,0.9,2.1,0.9,3.4s-0.3,2.4-0.9,3.4c-0.6,1-1.4,1.7-2.4,2.3
				c-1,0.5-2.1,0.8-3.4,0.8C-547,114.2-548.1,113.9-549.1,113.4z M-543.9,110c0.5-0.5,0.8-1.3,0.8-2.3s-0.3-1.8-0.8-2.3
				c-0.5-0.5-1.1-0.8-1.9-0.8c-0.8,0-1.4,0.3-1.9,0.8c-0.5,0.5-0.7,1.3-0.7,2.3c0,1,0.2,1.8,0.7,2.3c0.5,0.5,1.1,0.8,1.8,0.8
				C-545,110.8-544.4,110.6-543.9,110z"/>
			<path class="st2" d="M-531.4,110.4l2.7-9h4.1l-4.5,12.6h-4.8l-4.5-12.6h4.1L-531.4,110.4z"/>
			<path class="st2" d="M-523,104.3c0.5-1,1.2-1.7,2-2.3c0.8-0.5,1.8-0.8,2.8-0.8c0.9,0,1.7,0.2,2.3,0.5s1.2,0.8,1.5,1.4v-1.8h3.9
				V114h-3.9v-1.8c-0.4,0.6-0.9,1.1-1.6,1.4s-1.5,0.5-2.3,0.5c-1,0-2-0.3-2.8-0.8c-0.8-0.5-1.5-1.3-2-2.3c-0.5-1-0.7-2.1-0.7-3.4
				C-523.7,106.4-523.5,105.2-523,104.3z M-515.1,105.4c-0.5-0.6-1.2-0.8-2-0.8c-0.8,0-1.4,0.3-2,0.8c-0.5,0.6-0.8,1.3-0.8,2.3
				c0,1,0.3,1.7,0.8,2.3c0.5,0.6,1.2,0.8,2,0.8c0.8,0,1.4-0.3,2-0.8c0.5-0.6,0.8-1.3,0.8-2.3S-514.5,106-515.1,105.4z"/>
			<path class="st2" d="M-507.6,104.3c0.5-1,1.3-1.7,2.2-2.3s2.1-0.8,3.3-0.8c1.6,0,2.9,0.4,4,1.2c1.1,0.8,1.8,2,2.1,3.5h-4.1
				c-0.3-1-1-1.4-2-1.4c-0.7,0-1.3,0.3-1.7,0.8c-0.4,0.6-0.6,1.3-0.6,2.4s0.2,1.8,0.6,2.4c0.4,0.6,1,0.8,1.7,0.8c1,0,1.7-0.5,2-1.4
				h4.1c-0.3,1.5-1,2.6-2.1,3.5c-1.1,0.8-2.4,1.3-4,1.3c-1.2,0-2.3-0.3-3.3-0.8c-1-0.5-1.7-1.3-2.2-2.3c-0.5-1-0.8-2.1-0.8-3.4
				C-508.4,106.4-508.1,105.2-507.6,104.3z"/>
			<path class="st2" d="M-493.6,99.5c-0.4-0.4-0.6-0.9-0.6-1.5c0-0.6,0.2-1.1,0.6-1.5s1-0.6,1.7-0.6c0.7,0,1.2,0.2,1.6,0.6
				s0.6,0.9,0.6,1.5c0,0.6-0.2,1.1-0.6,1.5c-0.4,0.4-1,0.6-1.6,0.6C-492.6,100.1-493.2,99.9-493.6,99.5z M-490,101.4V114h-3.9v-12.6
				H-490z"/>
			<path class="st2" d="M-484.8,113.4c-1-0.5-1.8-1.3-2.3-2.3c-0.6-1-0.8-2.1-0.8-3.4c0-1.3,0.3-2.4,0.9-3.4c0.6-1,1.4-1.7,2.4-2.3
				c1-0.5,2.1-0.8,3.3-0.8s2.4,0.3,3.3,0.8c1,0.5,1.8,1.3,2.4,2.3c0.6,1,0.9,2.1,0.9,3.4s-0.3,2.4-0.9,3.4c-0.6,1-1.4,1.7-2.4,2.3
				c-1,0.5-2.1,0.8-3.4,0.8C-482.7,114.2-483.8,113.9-484.8,113.4z M-479.6,110c0.5-0.5,0.8-1.3,0.8-2.3s-0.3-1.8-0.8-2.3
				c-0.5-0.5-1.1-0.8-1.9-0.8c-0.8,0-1.4,0.3-1.9,0.8c-0.5,0.5-0.7,1.3-0.7,2.3c0,1,0.2,1.8,0.7,2.3c0.5,0.5,1.1,0.8,1.8,0.8
				C-480.8,110.8-480.1,110.6-479.6,110z"/>
			<path class="st2" d="M-461.6,102.7c0.9,1,1.3,2.3,1.3,3.9v7.4h-3.8v-6.9c0-0.8-0.2-1.5-0.7-2c-0.4-0.5-1-0.7-1.8-0.7
				s-1.3,0.2-1.8,0.7c-0.4,0.5-0.7,1.1-0.7,2v6.9h-3.9v-12.6h3.9v1.7c0.4-0.6,0.9-1,1.6-1.3c0.7-0.3,1.4-0.5,2.2-0.5
				C-463.7,101.2-462.5,101.7-461.6,102.7z"/>
			<path class="st2" d="M-442.5,99.1c1.3,0.7,2.2,1.6,2.9,2.8c0.7,1.2,1,2.6,1,4.1c0,1.6-0.3,2.9-1,4.1c-0.7,1.2-1.7,2.1-2.9,2.8
				c-1.3,0.7-2.7,1-4.4,1h-5.9V98.1h5.9C-445.2,98.1-443.7,98.5-442.5,99.1z M-443.7,109.5c0.8-0.8,1.2-1.9,1.2-3.4
				c0-1.5-0.4-2.6-1.2-3.4c-0.8-0.8-2-1.2-3.4-1.2h-1.8v9.2h1.8C-445.6,110.7-444.5,110.3-443.7,109.5z"/>
			<path class="st2" d="M-436.1,99.5c-0.4-0.4-0.6-0.9-0.6-1.5c0-0.6,0.2-1.1,0.6-1.5s1-0.6,1.7-0.6c0.7,0,1.2,0.2,1.6,0.6
				s0.6,0.9,0.6,1.5c0,0.6-0.2,1.1-0.6,1.5c-0.4,0.4-1,0.6-1.6,0.6C-435.1,100.1-435.6,99.9-436.1,99.5z M-432.5,101.4V114h-3.9
				v-12.6H-432.5z"/>
			<path class="st2" d="M-422.5,101.7c0.7,0.4,1.2,0.8,1.5,1.4v-1.8h3.9V114c0,1.2-0.2,2.2-0.7,3.2c-0.5,0.9-1.2,1.7-2.1,2.3
				c-0.9,0.6-2.1,0.8-3.5,0.8c-1.9,0-3.4-0.4-4.5-1.3c-1.2-0.9-1.8-2.1-2-3.6h3.8c0.1,0.5,0.4,0.9,0.9,1.1c0.5,0.3,1,0.4,1.7,0.4
				c0.8,0,1.4-0.2,1.9-0.7s0.7-1.2,0.7-2.2v-1.8c-0.4,0.6-0.9,1.1-1.6,1.4s-1.4,0.6-2.3,0.6c-1,0-2-0.3-2.8-0.8
				c-0.8-0.5-1.5-1.3-2-2.3c-0.5-1-0.7-2.1-0.7-3.4c0-1.3,0.2-2.4,0.7-3.4c0.5-1,1.2-1.7,2-2.3c0.8-0.5,1.8-0.8,2.8-0.8
				C-424,101.2-423.2,101.4-422.5,101.7z M-421.8,105.4c-0.5-0.6-1.2-0.8-2-0.8s-1.4,0.3-2,0.8c-0.5,0.6-0.8,1.3-0.8,2.3
				c0,1,0.3,1.7,0.8,2.3c0.5,0.6,1.2,0.8,2,0.8s1.4-0.3,2-0.8c0.5-0.6,0.8-1.3,0.8-2.3S-421.3,106-421.8,105.4z"/>
			<path class="st2" d="M-414,99.5c-0.4-0.4-0.6-0.9-0.6-1.5c0-0.6,0.2-1.1,0.6-1.5s1-0.6,1.7-0.6c0.7,0,1.2,0.2,1.6,0.6
				s0.6,0.9,0.6,1.5c0,0.6-0.2,1.1-0.6,1.5c-0.4,0.4-1,0.6-1.6,0.6C-413.1,100.1-413.6,99.9-414,99.5z M-410.5,101.4V114h-3.9v-12.6
				H-410.5z"/>
			<path class="st2" d="M-400.6,110.7v3.3h-2c-1.4,0-2.5-0.3-3.3-1c-0.8-0.7-1.2-1.8-1.2-3.4v-5h-1.5v-3.2h1.5v-3.1h3.9v3.1h2.5v3.2
				h-2.5v5.1c0,0.4,0.1,0.6,0.3,0.8c0.2,0.2,0.5,0.2,0.9,0.2H-400.6z"/>
			<path class="st2" d="M-398.5,104.3c0.5-1,1.2-1.7,2-2.3c0.8-0.5,1.8-0.8,2.8-0.8c0.9,0,1.7,0.2,2.3,0.5c0.7,0.4,1.2,0.8,1.5,1.4
				v-1.8h3.9V114h-3.9v-1.8c-0.4,0.6-0.9,1.1-1.6,1.4c-0.7,0.4-1.5,0.5-2.3,0.5c-1,0-2-0.3-2.8-0.8c-0.8-0.5-1.5-1.3-2-2.3
				c-0.5-1-0.7-2.1-0.7-3.4C-399.2,106.4-399,105.2-398.5,104.3z M-390.6,105.4c-0.5-0.6-1.2-0.8-2-0.8s-1.4,0.3-2,0.8
				c-0.5,0.6-0.8,1.3-0.8,2.3c0,1,0.3,1.7,0.8,2.3c0.5,0.6,1.2,0.8,2,0.8s1.4-0.3,2-0.8c0.5-0.6,0.8-1.3,0.8-2.3
				S-390.1,106-390.6,105.4z"/>
			<path class="st2" d="M-379.2,97.3V114h-3.9V97.3H-379.2z"/>
		</g>
	</g>
	<g>
		<g>
			<path class="st2" d="M-658.9,99.7v8.4h-2.1v-5l-1.9,5h-1.7l-1.9-5.1v5.1h-2.1v-8.4h2.4l2.4,5.8l2.3-5.8H-658.9z"/>
			<path class="st2" d="M-655.3,99.7v8.4h-2.1v-8.4H-655.3z"/>
			<path class="st2" d="M-646.3,108.1h-2.1l-3.4-5.2v5.2h-2.1v-8.4h2.1l3.4,5.2v-5.2h2.1V108.1z"/>
			<path class="st2" d="M-638.7,103.7c-0.2,0.4-0.6,0.7-1,1c-0.5,0.2-1,0.4-1.7,0.4h-1.3v3h-2.1v-8.4h3.3c0.7,0,1.2,0.1,1.7,0.3
				c0.5,0.2,0.8,0.6,1,1c0.2,0.4,0.3,0.9,0.3,1.4C-638.4,102.9-638.5,103.3-638.7,103.7z M-640.8,103.2c0.2-0.2,0.3-0.4,0.3-0.8
				s-0.1-0.6-0.3-0.8c-0.2-0.2-0.5-0.3-0.9-0.3h-1.1v2.1h1.1C-641.3,103.4-641,103.4-640.8,103.2z"/>
			<path class="st2" d="M-633,108.1l-1.8-3.2h-0.5v3.2h-2.1v-8.4h3.4c0.7,0,1.2,0.1,1.7,0.3c0.5,0.2,0.8,0.5,1,1
				c0.2,0.4,0.3,0.9,0.3,1.3c0,0.6-0.2,1.1-0.5,1.5c-0.3,0.4-0.8,0.8-1.4,0.9l1.9,3.3H-633z M-635.3,103.5h1.3
				c0.4,0,0.7-0.1,0.8-0.3c0.2-0.2,0.3-0.4,0.3-0.8c0-0.3-0.1-0.6-0.3-0.8c-0.2-0.2-0.5-0.3-0.8-0.3h-1.3V103.5z"/>
			<path class="st2" d="M-627.5,101.3v1.7h2.7v1.6h-2.7v1.8h3.1v1.6h-5.2v-8.4h5.2v1.6H-627.5z"/>
		</g>
	</g>
	<g>
		<g>
			<g>
				<circle class="st1" cx="-671.8" cy="104.4" r="1.1"/>
			</g>
			<g>
				<circle class="st1" cx="-665.2" cy="112.4" r="1.1"/>
			</g>
			<g>
				<circle class="st1" cx="-674.3" cy="110.5" r="0.5"/>
			</g>
			<g>
				<circle class="st1" cx="-671.9" cy="113.3" r="0.5"/>
			</g>
		</g>
		<g>
			<g>
				<path class="st1" d="M-671.8,107.1c-0.8,0-1.5-0.3-2-0.9c-0.4-0.5-0.7-1.2-0.6-1.9s0.4-1.3,0.9-1.8c1.1-0.9,2.8-0.8,3.7,0.3
					c0.9,1.1,0.8,2.8-0.3,3.7l0,0C-670.7,106.9-671.2,107.1-671.8,107.1z M-671.8,102.4c-0.5,0-1,0.2-1.4,0.5
					c-0.4,0.4-0.7,0.9-0.8,1.4c-0.1,0.6,0.1,1.1,0.5,1.5c0.7,0.9,2.1,1,3,0.3l0,0c0.9-0.7,1-2.1,0.3-3
					C-670.6,102.6-671.2,102.4-671.8,102.4z"/>
			</g>
			<g>
				<polygon class="st1" points="-689.7,115.8 -690,115.4 -683.9,110.4 -679.8,110.7 -673.8,105.8 -673.5,106.2 -679.6,111.3 
					-683.8,110.9 				"/>
			</g>
			<g>
				<path class="st1" d="M-665.3,115c-0.8,0-1.5-0.3-2-0.9c-0.9-1.1-0.8-2.8,0.3-3.7l0,0c1.1-0.9,2.8-0.8,3.7,0.3
					c0.9,1.1,0.8,2.8-0.3,3.7C-664.1,114.8-664.7,115-665.3,115z M-666.6,110.7L-666.6,110.7c-0.9,0.7-1,2.1-0.3,3
					c0.7,0.9,2.1,1,3,0.3c0.9-0.7,1-2.1,0.3-3C-664.4,110.1-665.7,110-666.6,110.7z"/>
			</g>
			<g>
				<polygon class="st1" points="-680.3,129.1 -680.7,128.7 -673.7,123 -673.3,118.8 -667.3,113.7 -666.9,114.1 -672.9,119.1 
					-673.2,123.2 				"/>
			</g>
			<g>
				<g>
					<polygon class="st1" points="-686,121.6 -686.3,121.2 -683,118.5 -679.2,119 -673,113.9 -672.7,114.3 -679.1,119.5 -682.9,119 
											"/>
				</g>
			</g>
			<g>
				<path class="st1" d="M-674.3,112c-0.4,0-0.8-0.2-1.1-0.5c-0.5-0.6-0.4-1.5,0.2-2c0.3-0.2,0.7-0.4,1.1-0.3c0.4,0,0.7,0.2,1,0.5
					c0.5,0.6,0.4,1.5-0.2,2C-673.6,111.8-674,112-674.3,112z M-674.3,109.6c-0.2,0-0.4,0.1-0.6,0.2l0,0c-0.4,0.3-0.5,0.9-0.1,1.3
					c0.3,0.4,0.9,0.5,1.3,0.1c0.4-0.3,0.5-0.9,0.1-1.3C-673.7,109.7-674,109.6-674.3,109.6C-674.2,109.6-674.3,109.6-674.3,109.6z"
					/>
			</g>
			<g>
				<path class="st1" d="M-672,114.7c-0.4,0-0.8-0.2-1.1-0.5c-0.5-0.6-0.4-1.5,0.2-2l0,0c0.6-0.5,1.5-0.4,2,0.2
					c0.5,0.6,0.4,1.5-0.2,2C-671.3,114.6-671.6,114.7-672,114.7z M-672.6,112.6L-672.6,112.6c-0.4,0.3-0.5,0.9-0.1,1.3
					c0.3,0.4,0.9,0.5,1.3,0.1c0.4-0.3,0.5-0.9,0.1-1.3S-672.2,112.3-672.6,112.6z"/>
			</g>
			<g>
				<polygon class="st1" points="-684.7,123.3 -685.1,122.9 -681.9,120.3 -681.6,116.4 -675.3,111.1 -675,111.5 -681.2,116.7 
					-681.4,120.5 				"/>
			</g>
		</g>
	</g>
	<g>
		<defs>
			<path id="SVGID_1_" d="M-649.1,45.6L-613,63l8.9,39.2l-25,31.4h-40.2l-25-31.4l8.9-39.2L-649.1,45.6 M-649.1,37.3l-42.7,20.6
				l-10.5,46.2l29.5,37h47.4l29.5-37l-10.5-46.2L-649.1,37.3L-649.1,37.3z"/>
		</defs>
		<clipPath id="SVGID_00000113340316302578428630000014291990278638976433_">
			<use xlink:href="#SVGID_1_"  style="overflow:visible;"/>
		</clipPath>
		<g style="clip-path:url(#SVGID_00000113340316302578428630000014291990278638976433_);">
			<polygon class="st4" points="-646.7,56.9 -663.4,26.7 -668.2,53.7 -673.4,83.6 -634.8,113.2 -621.8,101.8 			"/>
			<polygon class="st5" points="-723,45.6 -686.6,158.7 -673.4,83.6 			"/>
			<polygon class="st1" points="-673.4,83.6 -686.6,158.7 -634.8,113.2 			"/>
			<polygon class="st6" points="-581.6,66.5 -663.4,26.7 -646.7,56.9 			"/>
			<polygon class="st7" points="-663.4,26.7 -723,45.6 -668.2,53.7 			"/>
			<polygon class="st8" points="-686.6,158.7 -601.1,139.2 -634.8,113.2 			"/>
			<polygon class="st9" points="-621.8,101.8 -581.6,66.5 -646.7,56.9 			"/>
			<polygon class="st10" points="-621.8,101.8 -601.1,139.2 -581.6,66.5 			"/>
			<polygon class="st11" points="-634.8,113.2 -601.1,139.2 -621.8,101.8 			"/>
			<polygon class="st12" points="-668.2,53.7 -723,45.6 -673.4,83.6 			"/>
			<polygon class="st13" points="-646.7,56.9 -663.4,26.7 -668.2,53.7 			"/>
		</g>
	</g>
	<g>
		<defs>
			<path id="SVGID_00000094612334105697242960000001730460882383874214_" d="M-665.3,98.1c-0.1-0.1-0.1-0.2-0.1-0.3V75.9
				c0-0.1,0-0.2,0.1-0.3c0.1-0.1,0.2-0.1,0.3-0.1h3c0.1,0,0.2,0,0.3,0.1c0.1,0.1,0.1,0.2,0.1,0.3v18.9c0,0.1,0.1,0.2,0.2,0.2h8.9
				c0.1,0,0.2,0,0.3,0.1c0.1,0.1,0.1,0.2,0.1,0.3v2.5c0,0.1,0,0.2-0.1,0.3c-0.1,0.1-0.2,0.1-0.3,0.1H-665
				C-665.1,98.2-665.2,98.2-665.3,98.1z M-649.3,98.1c-0.1-0.1-0.1-0.2-0.1-0.3V75.9c0-0.1,0-0.2,0.1-0.3c0.1-0.1,0.2-0.1,0.3-0.1h3
				c0.1,0,0.2,0,0.3,0.1c0.1,0.1,0.1,0.2,0.1,0.3v21.9c0,0.1,0,0.2-0.1,0.3c-0.1,0.1-0.2,0.1-0.3,0.1h-3
				C-649.1,98.2-649.2,98.2-649.3,98.1z M-641.4,98.1c-0.1-0.1-0.1-0.2-0.1-0.3V75.9c0-0.1,0-0.2,0.1-0.3c0.1-0.1,0.2-0.1,0.3-0.1
				h6.7c2.1,0,3.8,0.6,5,1.7c1.3,1.2,1.9,2.7,1.9,4.7v9.8c0,1.9-0.6,3.5-1.9,4.7c-1.3,1.2-2.9,1.7-5,1.7h-6.7
				C-641.3,98.2-641.4,98.2-641.4,98.1z M-637.6,95l3.2,0c0.9,0,1.7-0.3,2.2-1c0.6-0.6,0.9-1.5,0.9-2.6v-9c0-1.1-0.3-2-0.9-2.6
				c-0.6-0.6-1.3-1-2.3-1h-3.2c-0.1,0-0.2,0.1-0.2,0.2v15.9C-637.8,94.9-637.7,95-637.6,95z"/>
		</defs>
		<clipPath id="SVGID_00000088098458058697274490000005912217796630889649_">
			<use xlink:href="#SVGID_00000094612334105697242960000001730460882383874214_"  style="overflow:visible;"/>
		</clipPath>
		<g style="clip-path:url(#SVGID_00000088098458058697274490000005912217796630889649_);">
			<polygon class="st4" points="-650.6,62.3 -661,43.7 -663.9,60.3 -667.2,78.8 -643.3,97.2 -635.2,90.1 			"/>
			<polygon class="st5" points="-697.8,55.3 -675.3,125.3 -667.2,78.8 			"/>
			<polygon class="st1" points="-667.2,78.8 -675.3,125.3 -643.3,97.2 			"/>
			<polygon class="st6" points="-610.3,68.3 -661,43.7 -650.6,62.3 			"/>
			<polygon class="st7" points="-661,43.7 -697.8,55.3 -663.9,60.3 			"/>
			<polygon class="st8" points="-675.3,125.3 -622.4,113.2 -643.3,97.2 			"/>
			<polygon class="st9" points="-635.2,90.1 -610.3,68.3 -650.6,62.3 			"/>
			<polygon class="st10" points="-635.2,90.1 -622.4,113.2 -610.3,68.3 			"/>
			<polygon class="st11" points="-643.3,97.2 -622.4,113.2 -635.2,90.1 			"/>
			<polygon class="st12" points="-663.9,60.3 -697.8,55.3 -667.2,78.8 			"/>
			<polygon class="st13" points="-650.6,62.3 -661,43.7 -663.9,60.3 			"/>
		</g>
	</g>
</g>
<g>
	<g>
		<g>
			<circle class="st15" cx="-846.1" cy="151.1" r="3.5"/>
			<circle class="st1" cx="-824.9" cy="177.7" r="3.5"/>
			<circle class="st15" cx="-854.6" cy="170.9" r="1.7"/>
			<circle class="st15" cx="-847.1" cy="180.3" r="1.7"/>
			<circle class="st15" cx="-888.8" cy="184.2" r="2.3"/>
			<circle class="st1" cx="-868.3" cy="210.1" r="2.3"/>
		</g>
		<g>
			<circle class="st16" cx="-846.1" cy="151.3" r="7.8"/>
			<polyline class="st16" points="-852.2,156.1 -872.5,172.1 -886.1,170.5 -925.8,202 			"/>
			<circle class="st17" cx="-825.1" cy="177.7" r="7.8"/>
			<polyline class="st17" points="-831.2,182.6 -851.4,198.7 -852.9,212.3 -892.6,243.8 			"/>
			<g>
				<polyline class="st16" points="-850.3,182.7 -871.3,199.3 -883.8,197.5 -911.8,219.6 				"/>
			</g>
			<circle class="st16" cx="-854.6" cy="170.9" r="3.9"/>
			<circle class="st16" cx="-847.2" cy="180.3" r="3.9"/>
			<polyline class="st16" points="-857.6,173.5 -878.5,190.2 -879.6,202.8 -907.5,225 			"/>
			<circle class="st16" cx="-889" cy="184.2" r="5.2"/>
			<polyline class="st16" points="-893,187.4 -906.3,198.1 -907.4,207.1 -915.9,213.9 			"/>
			<circle class="st17" cx="-868.3" cy="210.2" r="5.2"/>
			<polyline class="st17" points="-872.3,213.4 -885.8,224 -894.8,222.9 -903.6,229.9 			"/>
		</g>
	</g>
	<g>
		<defs>
			<path id="SVGID_00000034810168271332832190000012949173185800461242_" d="M-862.3,125.1l48.3,23.3l11.9,52.3l-33.5,42h-53.7
				l-33.5-42l11.9-52.3L-862.3,125.1 M-862.3,114l-57,27.5l-14.1,61.7l39.5,49.5h63.3l39.5-49.5l-14.1-61.7L-862.3,114L-862.3,114z"
				/>
		</defs>
		<clipPath id="SVGID_00000103265133980698019930000007932234122273216684_">
			<use xlink:href="#SVGID_00000034810168271332832190000012949173185800461242_"  style="overflow:visible;"/>
		</clipPath>
		<g style="clip-path:url(#SVGID_00000103265133980698019930000007932234122273216684_);">
			<polygon class="st4" points="-859.7,140.1 -882.1,99.7 -888.5,135.9 -895.6,176 -843.8,215.8 -826.3,200.4 			"/>
			<polygon class="st5" points="-962.1,125 -913.3,276.8 -895.6,176 			"/>
			<polygon class="st1" points="-895.6,176 -913.3,276.8 -843.8,215.8 			"/>
			<polygon class="st6" points="-772.3,153.1 -882.1,99.7 -859.7,140.1 			"/>
			<polygon class="st7" points="-882.1,99.7 -962.1,125 -888.5,135.9 			"/>
			<polygon class="st8" points="-913.3,276.8 -798.5,250.6 -843.8,215.8 			"/>
			<polygon class="st9" points="-826.3,200.4 -772.3,153.1 -859.7,140.1 			"/>
			<polygon class="st10" points="-826.3,200.4 -798.5,250.6 -772.3,153.1 			"/>
			<polygon class="st11" points="-843.8,215.8 -798.5,250.6 -826.3,200.4 			"/>
			<polygon class="st12" points="-888.5,135.9 -962.1,125 -895.6,176 			"/>
			<polygon class="st13" points="-859.7,140.1 -882.1,99.7 -888.5,135.9 			"/>
		</g>
	</g>
</g>
<g>
	<g>
		<g>
			<g>
				<g>
					<circle class="st0" cx="78.5" cy="43.3" r="1.1"/>
				</g>
				<g>
					<circle class="st0" cx="71.6" cy="35.7" r="1.1"/>
				</g>
				<g>
					<circle class="st0" cx="80.7" cy="37.1" r="0.5"/>
				</g>
				<g>
					<circle class="st0" cx="78.2" cy="34.4" r="0.5"/>
				</g>
			</g>
			<g>
				<g>
					<path class="st0" d="M78.5,45.9c0,0-0.1,0-0.1,0c-0.7,0-1.3-0.3-1.8-0.9c-1-1.1-0.9-2.7,0.2-3.7c0.5-0.5,1.2-0.7,1.9-0.7
						c0.7,0,1.3,0.3,1.8,0.9c0.5,0.5,0.7,1.2,0.7,1.9c0,0.7-0.3,1.3-0.9,1.8C79.8,45.6,79.2,45.9,78.5,45.9z M78.5,41.1
						c-0.5,0-1,0.2-1.4,0.6c-0.9,0.8-0.9,2.1-0.1,3c0.4,0.4,0.9,0.7,1.5,0.7c0.6,0,1.1-0.2,1.5-0.5c0.4-0.4,0.7-0.9,0.7-1.5
						c0-0.6-0.2-1.1-0.5-1.5c-0.4-0.4-0.9-0.7-1.5-0.7C78.6,41.1,78.6,41.1,78.5,41.1z"/>
				</g>
				<g>
					<polygon class="st0" points="80.4,41.8 80.1,41.5 86,36.1 90.2,36.3 97.9,29.3 98.2,29.7 90.4,36.9 86.2,36.7 					"/>
				</g>
				<g>
					<path class="st0" d="M71.6,38.3c0,0-0.1,0-0.1,0c-0.7,0-1.3-0.3-1.8-0.9c-0.5-0.5-0.7-1.2-0.7-1.9c0-0.7,0.3-1.3,0.9-1.8
						c1.1-1,2.7-0.9,3.7,0.2c0.5,0.5,0.7,1.2,0.7,1.9c0,0.7-0.3,1.3-0.9,1.8C72.9,38,72.3,38.3,71.6,38.3z M71.6,33.6
						c-0.5,0-1,0.2-1.4,0.6c-0.4,0.4-0.7,0.9-0.7,1.5c0,0.6,0.2,1.1,0.5,1.5c0.4,0.4,0.9,0.7,1.5,0.7c0.6,0,1.1-0.2,1.5-0.5l0,0
						c0.4-0.4,0.7-0.9,0.7-1.5c0-0.6-0.2-1.1-0.5-1.5C72.8,33.8,72.2,33.6,71.6,33.6z"/>
				</g>
				<g>
					<polygon class="st0" points="73.5,34.3 73.2,33.9 78.9,28.6 79.1,24.5 86.6,17.7 86.9,18 79.6,24.7 79.4,28.9 					"/>
				</g>
				<g>
					<g>
						<polygon class="st0" points="79.3,33.8 79,33.5 85.1,27.9 88.9,28.2 94.9,22.8 95.2,23.2 89.1,28.7 85.3,28.5 						"/>
					</g>
				</g>
				<g>
					<path class="st0" d="M80.7,38.6c-0.4,0-0.8-0.2-1.1-0.5c-0.5-0.6-0.5-1.5,0.1-2c0.6-0.5,1.5-0.5,2,0.1c0.5,0.6,0.5,1.5-0.1,2h0
						C81.4,38.4,81.1,38.6,80.7,38.6z M80.7,36.2c-0.2,0-0.5,0.1-0.6,0.2c-0.4,0.3-0.4,0.9-0.1,1.3c0.3,0.4,0.9,0.4,1.3,0.1
						c0.4-0.3,0.4-0.9,0.1-1.3C81.2,36.3,81,36.2,80.7,36.2z"/>
				</g>
				<g>
					<path class="st0" d="M78.3,35.9c-0.4,0-0.8-0.2-1.1-0.5c-0.5-0.6-0.5-1.5,0.1-2c0.6-0.5,1.5-0.5,2,0.1c0.5,0.6,0.5,1.5-0.1,2h0
						C79,35.8,78.6,35.9,78.3,35.9z M78.3,33.5c-0.2,0-0.5,0.1-0.6,0.2c-0.4,0.3-0.4,0.9-0.1,1.3c0.3,0.4,0.9,0.4,1.3,0.1
						c0.4-0.3,0.4-0.9,0.1-1.3C78.8,33.6,78.5,33.5,78.3,33.5z"/>
				</g>
				<g>
					<polygon class="st0" points="81.7,36.5 81.4,36.1 87.3,30.7 87.4,26.8 93.2,21.6 93.5,22 87.9,27.1 87.8,30.9 					"/>
				</g>
			</g>
		</g>
		<g>
			<g>
				<circle class="st0" cx="81.1" cy="29.3" r="0.5"/>
			</g>
			<g>
				<path class="st0" d="M81.1,30.7c-0.4,0-0.8-0.2-1-0.5c-0.5-0.6-0.5-1.5,0.1-2l0,0c0.3-0.3,0.6-0.4,1-0.4c0.4,0,0.7,0.2,1,0.5
					s0.4,0.6,0.4,1c0,0.4-0.2,0.7-0.5,1C81.8,30.6,81.4,30.7,81.1,30.7z M80.4,28.5L80.4,28.5c-0.4,0.4-0.4,1-0.1,1.4
					c0.4,0.4,1,0.4,1.4,0.1c0.2-0.2,0.3-0.4,0.3-0.7c0-0.3-0.1-0.5-0.3-0.7c-0.2-0.2-0.4-0.3-0.7-0.3C80.9,28.3,80.6,28.4,80.4,28.5
					z"/>
			</g>
			<g>
				<polygon class="st0" points="82.1,28.6 81.9,28.3 84.9,25.6 87,25.7 88.9,23.9 89.2,24.2 87.2,26.1 85.1,26 				"/>
			</g>
		</g>
		<g>
			<g>
				<path class="st0" d="M86.2,35.9C86.2,35.9,86.2,35.9,86.2,35.9c-0.4,0-0.8-0.2-1-0.5c-0.3-0.3-0.4-0.6-0.4-1
					c0-0.4,0.2-0.7,0.5-1c0.6-0.5,1.5-0.5,2,0.1c0.5,0.6,0.5,1.5-0.1,2l0,0C86.9,35.8,86.6,35.9,86.2,35.9z M86.2,33.5
					c-0.2,0-0.5,0.1-0.7,0.3c-0.2,0.2-0.3,0.4-0.3,0.7c0,0.3,0.1,0.5,0.3,0.7c0.2,0.2,0.4,0.3,0.7,0.3c0.3,0,0.5-0.1,0.7-0.3l0,0
					c0.4-0.4,0.4-1,0.1-1.4C86.8,33.6,86.5,33.5,86.2,33.5z"/>
			</g>
			<g>
				<circle class="st0" cx="86.2" cy="34.5" r="0.5"/>
			</g>
			<g>
				<polygon class="st0" points="87.3,33.8 87,33.5 89.9,30.9 90,28.7 92,26.9 92.3,27.2 90.4,28.9 90.3,31 				"/>
			</g>
		</g>
	</g>
	<g>
		<g>
			<path class="st1" d="M27.4,85.1c-0.5,0-1-0.2-1.4-0.7c-0.3-0.4-0.5-0.8-0.4-1.3c0-0.5,0.3-0.9,0.6-1.2c0.8-0.6,1.9-0.5,2.6,0.2
				c0.6,0.8,0.5,1.9-0.2,2.6l0,0C28.3,84.9,27.9,85.1,27.4,85.1z M27.4,81.9c-0.3,0-0.6,0.1-0.8,0.3c-0.3,0.2-0.4,0.5-0.5,0.9
				s0.1,0.7,0.3,1c0.5,0.6,1.3,0.6,1.9,0.2l0,0c0.3-0.2,0.4-0.5,0.5-0.9s-0.1-0.7-0.3-1C28.2,82.1,27.8,81.9,27.4,81.9z"/>
		</g>
		<g>
			<polygon class="st1" points="19,88 18.7,87.6 19.4,87 22.2,87.3 26.1,84.1 26.4,84.4 22.3,87.8 19.6,87.6 			"/>
		</g>
		<g>
			<circle class="st1" cx="27.4" cy="83.2" r="0.7"/>
		</g>
	</g>
	<g>
		<g>
			<path class="st1" d="M22.2,78.7c-0.5,0-1-0.2-1.4-0.7c-0.6-0.8-0.5-1.9,0.2-2.6l0,0c0.8-0.6,1.9-0.5,2.6,0.2
				c0.3,0.4,0.5,0.8,0.4,1.3c0,0.5-0.3,0.9-0.6,1.2C23,78.6,22.6,78.7,22.2,78.7z M21.4,75.9L21.4,75.9c-0.6,0.5-0.6,1.3-0.2,1.9
				c0.5,0.6,1.3,0.6,1.9,0.2c0.3-0.2,0.4-0.5,0.5-0.9s-0.1-0.7-0.3-1C22.8,75.5,21.9,75.4,21.4,75.9z"/>
		</g>
		<g>
			<polygon class="st1" points="16.2,84.8 15.9,84.4 16.5,83.8 16.8,81.1 20.8,77.7 21.2,78.1 17.3,81.3 17,84.1 			"/>
		</g>
		<g>
			<circle class="st1" cx="22.2" cy="76.9" r="0.7"/>
		</g>
	</g>
	<g>
		<g>
			<g>
				<circle class="st1" cx="31.3" cy="68.2" r="1.1"/>
			</g>
			<g>
				<circle class="st1" cx="37.9" cy="76.1" r="1.1"/>
			</g>
			<g>
				<circle class="st1" cx="28.9" cy="74.3" r="0.5"/>
			</g>
			<g>
				<circle class="st1" cx="31.2" cy="77.1" r="0.5"/>
			</g>
		</g>
		<g>
			<g>
				<path class="st1" d="M31.3,70.9c-0.8,0-1.5-0.3-2-0.9c-0.4-0.5-0.7-1.2-0.6-1.9s0.4-1.3,0.9-1.8c1.1-0.9,2.8-0.8,3.7,0.3
					c0.9,1.1,0.8,2.8-0.3,3.7l0,0C32.5,70.7,31.9,70.9,31.3,70.9z M31.3,66.1c-0.5,0-1,0.2-1.4,0.5c-0.4,0.4-0.7,0.9-0.8,1.4
					c-0.1,0.6,0.1,1.1,0.5,1.5c0.7,0.9,2.1,1,3,0.3l0,0c0.9-0.7,1-2.1,0.3-3C32.5,66.4,31.9,66.1,31.3,66.1z"/>
			</g>
			<g>
				<polygon class="st1" points="13.5,79.6 13.2,79.2 19.2,74.1 23.3,74.5 29.3,69.6 29.6,70 23.5,75 19.4,74.7 				"/>
			</g>
			<g>
				<path class="st1" d="M37.9,78.8c-0.8,0-1.5-0.3-2-0.9c-0.9-1.1-0.8-2.8,0.3-3.7l0,0c1.1-0.9,2.8-0.8,3.7,0.3
					c0.9,1.1,0.8,2.8-0.3,3.7C39,78.6,38.5,78.8,37.9,78.8z M36.5,74.5L36.5,74.5c-0.9,0.7-1,2.1-0.3,3c0.7,0.9,2.1,1,3,0.3
					c0.9-0.7,1-2.1,0.3-3C38.7,73.9,37.4,73.8,36.5,74.5z"/>
			</g>
			<g>
				<polygon class="st1" points="22.8,92.9 22.5,92.5 29.4,86.7 29.8,82.6 35.9,77.5 36.2,77.8 30.3,82.8 29.9,87 				"/>
			</g>
			<g>
				<g>
					<polygon class="st1" points="17.2,85.4 16.9,85 20.1,82.3 23.9,82.8 30.1,77.6 30.4,78 24.1,83.3 20.2,82.8 					"/>
				</g>
			</g>
			<g>
				<path class="st1" d="M28.8,75.7c-0.4,0-0.8-0.2-1.1-0.5c-0.5-0.6-0.4-1.5,0.2-2c0.3-0.2,0.7-0.4,1.1-0.3c0.4,0,0.7,0.2,1,0.5
					c0.5,0.6,0.4,1.5-0.2,2C29.5,75.6,29.2,75.7,28.8,75.7z M28.8,73.4c-0.2,0-0.4,0.1-0.6,0.2l0,0c-0.4,0.3-0.5,0.9-0.1,1.3
					c0.3,0.4,0.9,0.5,1.3,0.1c0.4-0.3,0.5-0.9,0.1-1.3C29.4,73.5,29.2,73.4,28.8,73.4C28.9,73.4,28.9,73.4,28.8,73.4z"/>
			</g>
			<g>
				<path class="st1" d="M31.2,78.5c-0.4,0-0.8-0.2-1.1-0.5c-0.5-0.6-0.4-1.5,0.2-2l0,0c0.6-0.5,1.5-0.4,2,0.2
					c0.5,0.6,0.4,1.5-0.2,2C31.8,78.4,31.5,78.5,31.2,78.5z M30.6,76.4L30.6,76.4c-0.4,0.3-0.5,0.9-0.1,1.3c0.3,0.4,0.9,0.5,1.3,0.1
					c0.4-0.3,0.5-0.9,0.1-1.3C31.6,76.1,31,76,30.6,76.4z"/>
			</g>
			<g>
				<polygon class="st1" points="18.4,87.1 18.1,86.7 21.3,84 21.5,80.2 27.8,74.9 28.1,75.3 22,80.4 21.7,84.3 				"/>
			</g>
		</g>
	</g>
	<g>
		<defs>
			<path id="SVGID_00000000213456918602004180000008749364146622704786_" d="M54,9.4l36.2,17.4l8.9,39.2l-25,31.4H33.9l-25-31.4
				l8.9-39.2L54,9.4 M54,1.1L11.3,21.6L0.8,67.8l29.5,37h47.4l29.5-37L96.7,21.6L54,1.1L54,1.1z"/>
		</defs>
		<clipPath id="SVGID_00000173128966794357350230000016301674995666486180_">
			<use xlink:href="#SVGID_00000000213456918602004180000008749364146622704786_"  style="overflow:visible;"/>
		</clipPath>
		<g style="clip-path:url(#SVGID_00000173128966794357350230000016301674995666486180_);">
			<polygon class="st4" points="56.4,20.7 39.7,-9.5 35,17.5 29.7,47.4 68.3,77 81.3,65.6 			"/>
			<polygon class="st5" points="-19.8,9.4 16.5,122.5 29.7,47.4 			"/>
			<polygon class="st1" points="29.7,47.4 16.5,122.5 68.3,77 			"/>
			<polygon class="st6" points="121.5,30.3 39.7,-9.5 56.4,20.7 			"/>
			<polygon class="st7" points="39.7,-9.5 -19.8,9.4 35,17.5 			"/>
			<polygon class="st8" points="16.5,122.5 102,102.9 68.3,77 			"/>
			<polygon class="st9" points="81.3,65.6 121.5,30.3 56.4,20.7 			"/>
			<polygon class="st10" points="81.3,65.6 102,102.9 121.5,30.3 			"/>
			<polygon class="st11" points="68.3,77 102,102.9 81.3,65.6 			"/>
			<polygon class="st12" points="35,17.5 -19.8,9.4 29.7,47.4 			"/>
			<polygon class="st13" points="56.4,20.7 39.7,-9.5 35,17.5 			"/>
		</g>
	</g>
	<g>
		<defs>
			<path id="SVGID_00000041290443921408367730000003236971303543314310_" d="M34.5,72c-0.1-0.1-0.1-0.2-0.1-0.3V45.4
				c0-0.1,0-0.2,0.1-0.3c0.1-0.1,0.2-0.1,0.3-0.1h3.6c0.1,0,0.2,0,0.3,0.1c0.1,0.1,0.1,0.2,0.1,0.3v22.7c0,0.1,0.1,0.2,0.2,0.2h10.7
				c0.1,0,0.2,0,0.3,0.1c0.1,0.1,0.1,0.2,0.1,0.3v3c0,0.1,0,0.2-0.1,0.3c-0.1,0.1-0.2,0.1-0.3,0.1h-15C34.7,72.2,34.6,72.1,34.5,72z
				 M53.7,72c-0.1-0.1-0.1-0.2-0.1-0.3V45.4c0-0.1,0-0.2,0.1-0.3c0.1-0.1,0.2-0.1,0.3-0.1h3.6c0.1,0,0.2,0,0.3,0.1
				c0.1,0.1,0.1,0.2,0.1,0.3v26.3c0,0.1,0,0.2-0.1,0.3c-0.1,0.1-0.2,0.1-0.3,0.1h-3.6C53.9,72.2,53.8,72.1,53.7,72z M63.2,72
				c-0.1-0.1-0.1-0.2-0.1-0.3V45.4c0-0.1,0-0.2,0.1-0.3c0.1-0.1,0.2-0.1,0.3-0.1h8.1c2.5,0,4.5,0.7,6.1,2.1c1.5,1.4,2.3,3.3,2.3,5.6
				v11.8c0,2.3-0.8,4.2-2.3,5.6c-1.5,1.4-3.5,2.1-6.1,2.1h-8.1C63.4,72.2,63.3,72.1,63.2,72z M67.8,68.3l3.9,0c1.1,0,2-0.4,2.7-1.1
				c0.7-0.8,1-1.8,1.1-3.1V53.1c0-1.3-0.3-2.4-1-3.2c-0.7-0.8-1.6-1.2-2.7-1.2h-3.9c-0.1,0-0.2,0.1-0.2,0.2v19.1
				C67.6,68.2,67.7,68.3,67.8,68.3z"/>
		</defs>
		<clipPath id="SVGID_00000036227219216172488220000003900479771059002021_">
			<use xlink:href="#SVGID_00000041290443921408367730000003236971303543314310_"  style="overflow:visible;"/>
		</clipPath>
		<g style="clip-path:url(#SVGID_00000036227219216172488220000003900479771059002021_);">
			<polygon class="st4" points="52.2,29 39.7,6.5 36.2,26.6 32.3,48.9 61,71 70.7,62.4 			"/>
			<polygon class="st5" points="-4.6,20.6 22.4,104.8 32.3,48.9 			"/>
			<polygon class="st1" points="32.3,48.9 22.4,104.8 61,71 			"/>
			<polygon class="st6" points="100.7,36.2 39.7,6.5 52.2,29 			"/>
			<polygon class="st7" points="39.7,6.5 -4.6,20.6 36.2,26.6 			"/>
			<polygon class="st8" points="22.4,104.8 86.1,90.3 61,71 			"/>
			<polygon class="st9" points="70.7,62.4 100.7,36.2 52.2,29 			"/>
			<polygon class="st10" points="70.7,62.4 86.1,90.3 100.7,36.2 			"/>
			<polygon class="st11" points="61,71 86.1,90.3 70.7,62.4 			"/>
			<polygon class="st12" points="36.2,26.6 -4.6,20.6 32.3,48.9 			"/>
			<polygon class="st13" points="52.2,29 39.7,6.5 36.2,26.6 			"/>
		</g>
	</g>
</g>
</svg>
