<?xml version="1.0" encoding="utf-8"?>
<!-- Generator: Adobe Illustrator 26.0.3, SVG Export Plug-In . SVG Version: 6.00 Build 0)  -->
<svg version="1.1" id="Capa_1" xmlns="http://www.w3.org/2000/svg" xmlns:xlink="http://www.w3.org/1999/xlink" x="0px" y="0px"
	 viewBox="0 0 108.1 105.5" style="enable-background:new 0 0 108.1 105.5;" xml:space="preserve">
<style type="text/css">
	.st0{fill:#426EAB;}
	.st1{fill:#FCB61A;}
	.st2{fill:#1C3D6F;}
	.st3{clip-path:url(#SVGID_00000144324151613428415850000016398205238291952015_);}
	.st4{fill:#1B3E6F;}
	.st5{fill:#E25C28;}
	.st6{fill:#3B6EAD;}
	.st7{fill:#ED273A;}
	.st8{fill:#30BBAD;}
	.st9{fill:#1F99BE;}
	.st10{fill:#71C499;}
	.st11{fill:#249A8D;}
	.st12{fill:#B1202A;}
	.st13{fill:#1C3C6D;}
	.st14{clip-path:url(#SVGID_00000033353744204685412110000012385936977307592629_);}
	.st15{fill:#E15B29;}
	.st16{fill:none;stroke:#E15B29;stroke-miterlimit:10;}
	.st17{fill:none;stroke:#FCB61A;stroke-miterlimit:10;}
	.st18{clip-path:url(#SVGID_00000140720039135180405160000014963385799312992430_);}
	.st19{clip-path:url(#SVGID_00000088130498778688719090000009338652322693168525_);}
	.st20{clip-path:url(#SVGID_00000141435420095406421950000002998664448444857998_);}
</style>
<g>
	<g>
		<g>
			<g>
				<g>
					<circle class="st0" cx="-266.1" cy="43.3" r="1.1"/>
				</g>
				<g>
					<circle class="st0" cx="-273" cy="35.7" r="1.1"/>
				</g>
				<g>
					<circle class="st0" cx="-263.9" cy="37.1" r="0.5"/>
				</g>
				<g>
					<circle class="st0" cx="-266.4" cy="34.4" r="0.5"/>
				</g>
			</g>
			<g>
				<g>
					<path class="st0" d="M-266.1,45.9c0,0-0.1,0-0.1,0c-0.7,0-1.3-0.3-1.8-0.9c-1-1.1-0.9-2.7,0.2-3.7c0.5-0.5,1.2-0.7,1.9-0.7
						c0.7,0,1.3,0.3,1.8,0.9c0.5,0.5,0.7,1.2,0.7,1.9c0,0.7-0.3,1.3-0.9,1.8C-264.8,45.6-265.4,45.9-266.1,45.9z M-266.1,41.1
						c-0.5,0-1,0.2-1.4,0.6c-0.9,0.8-0.9,2.1-0.1,3c0.4,0.4,0.9,0.7,1.5,0.7c0.6,0,1.1-0.2,1.5-0.5c0.4-0.4,0.7-0.9,0.7-1.5
						c0-0.6-0.2-1.1-0.5-1.5c-0.4-0.4-0.9-0.7-1.5-0.7C-266,41.1-266.1,41.1-266.1,41.1z"/>
				</g>
				<g>
					<polygon class="st0" points="-264.2,41.8 -264.5,41.5 -258.6,36.1 -254.4,36.3 -246.8,29.3 -246.4,29.7 -254.3,36.9 
						-258.4,36.7 					"/>
				</g>
				<g>
					<path class="st0" d="M-273,38.3c0,0-0.1,0-0.1,0c-0.7,0-1.3-0.3-1.8-0.9c-0.5-0.5-0.7-1.2-0.7-1.9c0-0.7,0.3-1.3,0.9-1.8
						c1.1-1,2.7-0.9,3.7,0.2c0.5,0.5,0.7,1.2,0.7,1.9c0,0.7-0.3,1.3-0.9,1.8C-271.7,38-272.3,38.3-273,38.3z M-273,33.6
						c-0.5,0-1,0.2-1.4,0.6c-0.4,0.4-0.7,0.9-0.7,1.5c0,0.6,0.2,1.1,0.5,1.5c0.4,0.4,0.9,0.7,1.5,0.7c0.6,0,1.1-0.2,1.5-0.5l0,0
						c0.4-0.4,0.7-0.9,0.7-1.5c0-0.6-0.2-1.1-0.5-1.5C-271.8,33.8-272.4,33.6-273,33.6z"/>
				</g>
				<g>
					<polygon class="st0" points="-271.1,34.3 -271.4,33.9 -265.7,28.6 -265.5,24.5 -258,17.7 -257.7,18 -265,24.7 -265.2,28.9 
											"/>
				</g>
				<g>
					<g>
						<polygon class="st0" points="-265.3,33.8 -265.6,33.5 -259.5,27.9 -255.7,28.2 -249.7,22.8 -249.4,23.2 -255.5,28.7 
							-259.3,28.5 						"/>
					</g>
				</g>
				<g>
					<path class="st0" d="M-263.9,38.6c-0.4,0-0.8-0.2-1.1-0.5c-0.5-0.6-0.5-1.5,0.1-2c0.6-0.5,1.5-0.5,2,0.1c0.5,0.6,0.5,1.5-0.1,2
						h0C-263.2,38.4-263.6,38.6-263.9,38.6z M-263.9,36.2c-0.2,0-0.5,0.1-0.6,0.2c-0.4,0.3-0.4,0.9-0.1,1.3c0.3,0.4,0.9,0.4,1.3,0.1
						c0.4-0.3,0.4-0.9,0.1-1.3C-263.4,36.3-263.6,36.2-263.9,36.2z"/>
				</g>
				<g>
					<path class="st0" d="M-266.3,35.9c-0.4,0-0.8-0.2-1.1-0.5c-0.5-0.6-0.5-1.5,0.1-2c0.6-0.5,1.5-0.5,2,0.1c0.5,0.6,0.5,1.5-0.1,2
						h0C-265.6,35.8-266,35.9-266.3,35.9z M-266.3,33.5c-0.2,0-0.5,0.1-0.6,0.2c-0.4,0.3-0.4,0.9-0.1,1.3c0.3,0.4,0.9,0.4,1.3,0.1
						c0.4-0.3,0.4-0.9,0.1-1.3C-265.8,33.6-266.1,33.5-266.3,33.5z"/>
				</g>
				<g>
					<polygon class="st0" points="-262.9,36.5 -263.2,36.1 -257.3,30.7 -257.2,26.8 -251.5,21.6 -251.1,22 -256.7,27.1 -256.8,30.9 
											"/>
				</g>
			</g>
		</g>
		<g>
			<g>
				<circle class="st0" cx="-263.5" cy="29.3" r="0.5"/>
			</g>
			<g>
				<path class="st0" d="M-263.5,30.7c-0.4,0-0.8-0.2-1-0.5c-0.5-0.6-0.5-1.5,0.1-2l0,0c0.3-0.3,0.6-0.4,1-0.4c0.4,0,0.7,0.2,1,0.5
					s0.4,0.6,0.4,1c0,0.4-0.2,0.7-0.5,1C-262.8,30.6-263.2,30.7-263.5,30.7z M-264.2,28.5L-264.2,28.5c-0.4,0.4-0.4,1-0.1,1.4
					c0.4,0.4,1,0.4,1.4,0.1c0.2-0.2,0.3-0.4,0.3-0.7c0-0.3-0.1-0.5-0.3-0.7c-0.2-0.2-0.4-0.3-0.7-0.3
					C-263.8,28.3-264,28.4-264.2,28.5z"/>
			</g>
			<g>
				<polygon class="st0" points="-262.5,28.6 -262.8,28.3 -259.7,25.6 -257.6,25.7 -255.7,23.9 -255.4,24.2 -257.4,26.1 -259.6,26 
									"/>
			</g>
		</g>
		<g>
			<g>
				<path class="st0" d="M-258.4,35.9C-258.4,35.9-258.4,35.9-258.4,35.9c-0.4,0-0.8-0.2-1-0.5c-0.3-0.3-0.4-0.6-0.4-1
					c0-0.4,0.2-0.7,0.5-1c0.6-0.5,1.5-0.5,2,0.1c0.5,0.6,0.5,1.5-0.1,2l0,0C-257.7,35.8-258,35.9-258.4,35.9z M-258.4,33.5
					c-0.2,0-0.5,0.1-0.7,0.3c-0.2,0.2-0.3,0.4-0.3,0.7c0,0.3,0.1,0.5,0.3,0.7c0.2,0.2,0.4,0.3,0.7,0.3c0.3,0,0.5-0.1,0.7-0.3l0,0
					c0.4-0.4,0.4-1,0.1-1.4C-257.8,33.6-258.1,33.5-258.4,33.5z"/>
			</g>
			<g>
				<circle class="st0" cx="-258.4" cy="34.5" r="0.5"/>
			</g>
			<g>
				<polygon class="st0" points="-257.3,33.8 -257.6,33.5 -254.7,30.9 -254.6,28.7 -252.6,26.9 -252.4,27.2 -254.2,28.9 -254.3,31 
									"/>
			</g>
		</g>
	</g>
	<g>
		<g>
			<path class="st1" d="M-317.2,85.1c-0.5,0-1-0.2-1.4-0.7c-0.3-0.4-0.5-0.8-0.4-1.3c0-0.5,0.3-0.9,0.6-1.2c0.8-0.6,1.9-0.5,2.6,0.2
				c0.6,0.8,0.5,1.9-0.2,2.6l0,0C-316.3,84.9-316.8,85.1-317.2,85.1z M-317.2,81.9c-0.3,0-0.6,0.1-0.8,0.3c-0.3,0.2-0.4,0.5-0.5,0.9
				s0.1,0.7,0.3,1c0.5,0.6,1.3,0.6,1.9,0.2l0,0c0.3-0.2,0.4-0.5,0.5-0.9s-0.1-0.7-0.3-1C-316.4,82.1-316.8,81.9-317.2,81.9z"/>
		</g>
		<g>
			<polygon class="st1" points="-325.6,88 -325.9,87.6 -325.2,87 -322.5,87.3 -318.5,84.1 -318.2,84.4 -322.3,87.8 -325,87.6 			"/>
		</g>
		<g>
			<circle class="st1" cx="-317.2" cy="83.2" r="0.7"/>
		</g>
	</g>
	<g>
		<g>
			<path class="st1" d="M-322.4,78.7c-0.5,0-1-0.2-1.4-0.7c-0.6-0.8-0.5-1.9,0.2-2.6l0,0c0.8-0.6,1.9-0.5,2.6,0.2
				c0.3,0.4,0.5,0.8,0.4,1.3c0,0.5-0.3,0.9-0.6,1.2C-321.6,78.6-322,78.7-322.4,78.7z M-323.2,75.9L-323.2,75.9
				c-0.6,0.5-0.6,1.3-0.2,1.9c0.5,0.6,1.3,0.6,1.9,0.2c0.3-0.2,0.4-0.5,0.5-0.9s-0.1-0.7-0.3-1C-321.9,75.5-322.7,75.4-323.2,75.9z"
				/>
		</g>
		<g>
			<polygon class="st1" points="-328.4,84.8 -328.7,84.4 -328.1,83.8 -327.8,81.1 -323.8,77.7 -323.4,78.1 -327.3,81.3 -327.6,84.1 
							"/>
		</g>
		<g>
			<circle class="st1" cx="-322.4" cy="76.9" r="0.7"/>
		</g>
	</g>
	<g>
		<g>
			<path class="st2" d="M-226.3,47.6h5.1v3h-8.9V34.8h3.9V47.6z"/>
			<path class="st2" d="M-219.4,40.9c0.5-1,1.2-1.7,2-2.3c0.8-0.5,1.8-0.8,2.8-0.8c0.9,0,1.7,0.2,2.3,0.5s1.2,0.8,1.5,1.4V38h3.9
				v12.6h-3.9v-1.8c-0.4,0.6-0.9,1.1-1.6,1.4s-1.5,0.5-2.3,0.5c-1,0-2-0.3-2.8-0.8c-0.8-0.5-1.5-1.3-2-2.3c-0.5-1-0.7-2.1-0.7-3.4
				C-220.1,43-219.9,41.9-219.4,40.9z M-211.5,42c-0.5-0.6-1.2-0.8-2-0.8c-0.8,0-1.4,0.3-2,0.8c-0.5,0.6-0.8,1.3-0.8,2.3
				c0,1,0.3,1.7,0.8,2.3c0.5,0.6,1.2,0.8,2,0.8c0.8,0,1.4-0.3,2-0.8c0.5-0.6,0.8-1.3,0.8-2.3S-211,42.6-211.5,42z"/>
			<path class="st2" d="M-198.6,38.4c0.7-0.4,1.5-0.5,2.3-0.5c1,0,2,0.3,2.8,0.8c0.8,0.5,1.5,1.3,2,2.3c0.5,1,0.7,2.1,0.7,3.4
				c0,1.3-0.2,2.4-0.7,3.4c-0.5,1-1.2,1.7-2,2.3c-0.8,0.5-1.8,0.8-2.8,0.8c-0.9,0-1.7-0.2-2.3-0.5c-0.7-0.4-1.2-0.8-1.6-1.4v1.8
				h-3.9V33.9h3.9v5.9C-199.8,39.2-199.3,38.7-198.6,38.4z M-195.4,42c-0.5-0.6-1.2-0.8-2-0.8c-0.8,0-1.4,0.3-2,0.8
				c-0.5,0.6-0.8,1.3-0.8,2.3s0.3,1.7,0.8,2.3c0.5,0.6,1.2,0.8,2,0.8c0.8,0,1.4-0.3,2-0.8s0.8-1.3,0.8-2.3
				C-194.6,43.3-194.9,42.6-195.4,42z"/>
			<path class="st2" d="M-186.2,50c-1-0.5-1.8-1.3-2.3-2.3c-0.6-1-0.8-2.1-0.8-3.4c0-1.3,0.3-2.4,0.9-3.4c0.6-1,1.4-1.7,2.4-2.3
				s2.1-0.8,3.3-0.8s2.4,0.3,3.3,0.8s1.8,1.3,2.4,2.3c0.6,1,0.9,2.1,0.9,3.4s-0.3,2.4-0.9,3.4c-0.6,1-1.4,1.7-2.4,2.3
				c-1,0.5-2.1,0.8-3.4,0.8C-184.1,50.8-185.3,50.6-186.2,50z M-181,46.7c0.5-0.5,0.8-1.3,0.8-2.3s-0.3-1.8-0.8-2.3
				c-0.5-0.5-1.1-0.8-1.9-0.8c-0.8,0-1.4,0.3-1.9,0.8c-0.5,0.5-0.7,1.3-0.7,2.3c0,1,0.2,1.8,0.7,2.3c0.5,0.5,1.1,0.8,1.8,0.8
				C-182.2,47.5-181.5,47.2-181,46.7z"/>
			<path class="st2" d="M-168.7,38.5c0.7-0.4,1.4-0.6,2.3-0.6V42h-1.1c-1,0-1.7,0.2-2.2,0.6c-0.5,0.4-0.7,1.1-0.7,2.2v5.9h-3.9V38
				h3.9v2.1C-169.9,39.4-169.4,38.9-168.7,38.5z"/>
			<path class="st2" d="M-164.6,40.9c0.5-1,1.2-1.7,2-2.3c0.8-0.5,1.8-0.8,2.8-0.8c0.9,0,1.7,0.2,2.3,0.5s1.2,0.8,1.5,1.4V38h3.9
				v12.6h-3.9v-1.8c-0.4,0.6-0.9,1.1-1.6,1.4s-1.5,0.5-2.3,0.5c-1,0-2-0.3-2.8-0.8c-0.8-0.5-1.5-1.3-2-2.3c-0.5-1-0.7-2.1-0.7-3.4
				C-165.3,43-165.1,41.9-164.6,40.9z M-156.7,42c-0.5-0.6-1.2-0.8-2-0.8c-0.8,0-1.4,0.3-2,0.8c-0.5,0.6-0.8,1.3-0.8,2.3
				c0,1,0.3,1.7,0.8,2.3c0.5,0.6,1.2,0.8,2,0.8c0.8,0,1.4-0.3,2-0.8c0.5-0.6,0.8-1.3,0.8-2.3S-156.2,42.6-156.7,42z"/>
			<path class="st2" d="M-142.2,47.4v3.3h-2c-1.4,0-2.5-0.3-3.3-1c-0.8-0.7-1.2-1.8-1.2-3.4v-5h-1.5V38h1.5v-3.1h3.9V38h2.5v3.2
				h-2.5v5.1c0,0.4,0.1,0.6,0.3,0.8c0.2,0.2,0.5,0.2,0.9,0.2H-142.2z"/>
			<path class="st2" d="M-137.6,50c-1-0.5-1.8-1.3-2.3-2.3c-0.6-1-0.8-2.1-0.8-3.4c0-1.3,0.3-2.4,0.9-3.4c0.6-1,1.4-1.7,2.4-2.3
				c1-0.5,2.1-0.8,3.3-0.8s2.4,0.3,3.3,0.8c1,0.5,1.8,1.3,2.4,2.3c0.6,1,0.9,2.1,0.9,3.4s-0.3,2.4-0.9,3.4c-0.6,1-1.4,1.7-2.4,2.3
				c-1,0.5-2.1,0.8-3.4,0.8S-136.6,50.6-137.6,50z M-132.4,46.7c0.5-0.5,0.8-1.3,0.8-2.3s-0.3-1.8-0.8-2.3c-0.5-0.5-1.1-0.8-1.9-0.8
				c-0.8,0-1.4,0.3-1.9,0.8c-0.5,0.5-0.7,1.3-0.7,2.3c0,1,0.2,1.8,0.7,2.3c0.5,0.5,1.1,0.8,1.8,0.8S-132.9,47.2-132.4,46.7z"/>
			<path class="st2" d="M-120.1,38.5c0.7-0.4,1.4-0.6,2.3-0.6V42h-1.1c-1,0-1.7,0.2-2.2,0.6c-0.5,0.4-0.7,1.1-0.7,2.2v5.9h-3.9V38
				h3.9v2.1C-121.3,39.4-120.7,38.9-120.1,38.5z"/>
			<path class="st2" d="M-115.7,36.1c-0.4-0.4-0.6-0.9-0.6-1.5c0-0.6,0.2-1.1,0.6-1.5s1-0.6,1.7-0.6c0.7,0,1.2,0.2,1.6,0.6
				s0.6,0.9,0.6,1.5c0,0.6-0.2,1.1-0.6,1.5c-0.4,0.4-1,0.6-1.6,0.6C-114.7,36.7-115.2,36.5-115.7,36.1z M-112.1,38v12.6h-3.9V38
				H-112.1z"/>
			<path class="st2" d="M-106.9,50c-1-0.5-1.8-1.3-2.3-2.3c-0.6-1-0.8-2.1-0.8-3.4c0-1.3,0.3-2.4,0.9-3.4c0.6-1,1.4-1.7,2.4-2.3
				c1-0.5,2.1-0.8,3.3-0.8s2.4,0.3,3.3,0.8c1,0.5,1.8,1.3,2.4,2.3c0.6,1,0.9,2.1,0.9,3.4s-0.3,2.4-0.9,3.4c-0.6,1-1.4,1.7-2.4,2.3
				c-1,0.5-2.1,0.8-3.4,0.8C-104.8,50.8-105.9,50.6-106.9,50z M-101.6,46.7c0.5-0.5,0.8-1.3,0.8-2.3s-0.3-1.8-0.8-2.3
				c-0.5-0.5-1.1-0.8-1.9-0.8c-0.8,0-1.4,0.3-1.9,0.8c-0.5,0.5-0.7,1.3-0.7,2.3c0,1,0.2,1.8,0.7,2.3c0.5,0.5,1.1,0.8,1.8,0.8
				C-102.8,47.5-102.2,47.2-101.6,46.7z"/>
			<path class="st2" d="M-90.1,40.9c0.5-1,1.2-1.7,2-2.3s1.8-0.8,2.8-0.8c0.8,0,1.6,0.2,2.3,0.5c0.7,0.3,1.2,0.8,1.6,1.4v-5.9h3.9
				v16.7h-3.9v-1.8c-0.4,0.6-0.9,1.1-1.5,1.4c-0.7,0.4-1.5,0.5-2.3,0.5c-1,0-2-0.3-2.8-0.8c-0.8-0.5-1.5-1.3-2-2.3
				c-0.5-1-0.7-2.1-0.7-3.4C-90.8,43-90.6,41.9-90.1,40.9z M-82.2,42c-0.5-0.6-1.2-0.8-2-0.8c-0.8,0-1.4,0.3-2,0.8
				c-0.5,0.6-0.8,1.3-0.8,2.3c0,1,0.3,1.7,0.8,2.3s1.2,0.8,2,0.8c0.8,0,1.4-0.3,2-0.8c0.5-0.6,0.8-1.3,0.8-2.3S-81.7,42.6-82.2,42z"
				/>
			<path class="st2" d="M-62.9,45.3h-8.8c0.1,0.8,0.3,1.4,0.8,1.8c0.4,0.4,1,0.6,1.6,0.6c1,0,1.6-0.4,2-1.2h4.1
				c-0.2,0.8-0.6,1.6-1.1,2.2c-0.6,0.7-1.2,1.2-2.1,1.6c-0.8,0.4-1.8,0.6-2.8,0.6c-1.2,0-2.3-0.3-3.3-0.8c-1-0.5-1.7-1.3-2.3-2.3
				c-0.5-1-0.8-2.1-0.8-3.4c0-1.3,0.3-2.5,0.8-3.4c0.5-1,1.3-1.7,2.2-2.3s2.1-0.8,3.3-0.8c1.2,0,2.3,0.3,3.3,0.8
				c0.9,0.5,1.7,1.2,2.2,2.2c0.5,0.9,0.8,2.1,0.8,3.3C-62.8,44.5-62.8,44.9-62.9,45.3z M-66.8,43.1c0-0.7-0.2-1.2-0.7-1.6
				s-1-0.6-1.7-0.6c-0.6,0-1.2,0.2-1.6,0.6c-0.4,0.4-0.7,0.9-0.8,1.6H-66.8z"/>
			<path class="st2" d="M-226.3,61.9v15.9h-3.9V61.9H-226.3z"/>
			<path class="st2" d="M-212.3,66.5c0.9,1,1.3,2.3,1.3,3.9v7.4h-3.8v-6.9c0-0.8-0.2-1.5-0.7-2c-0.4-0.5-1-0.7-1.8-0.7
				c-0.7,0-1.3,0.2-1.8,0.7c-0.4,0.5-0.7,1.1-0.7,2v6.9h-3.9V65.2h3.9v1.7c0.4-0.6,0.9-1,1.6-1.3c0.7-0.3,1.4-0.5,2.2-0.5
				C-214.3,65-213.1,65.5-212.3,66.5z"/>
			<path class="st2" d="M-197,66.5c0.9,1,1.3,2.3,1.3,3.9v7.4h-3.8v-6.9c0-0.8-0.2-1.5-0.7-2c-0.4-0.5-1-0.7-1.8-0.7
				c-0.7,0-1.3,0.2-1.8,0.7c-0.4,0.5-0.7,1.1-0.7,2v6.9h-3.9V65.2h3.9v1.7c0.4-0.6,0.9-1,1.6-1.3c0.7-0.3,1.4-0.5,2.2-0.5
				C-199.1,65-197.9,65.5-197,66.5z"/>
			<path class="st2" d="M-190.6,77.2c-1-0.5-1.8-1.3-2.3-2.3c-0.6-1-0.8-2.1-0.8-3.4c0-1.3,0.3-2.4,0.9-3.4c0.6-1,1.4-1.7,2.4-2.3
				s2.1-0.8,3.3-0.8s2.4,0.3,3.3,0.8s1.8,1.3,2.4,2.3c0.6,1,0.9,2.1,0.9,3.4s-0.3,2.4-0.9,3.4c-0.6,1-1.4,1.7-2.4,2.3
				c-1,0.5-2.1,0.8-3.4,0.8C-188.5,78-189.6,77.7-190.6,77.2z M-185.4,73.8c0.5-0.5,0.8-1.3,0.8-2.3s-0.3-1.8-0.8-2.3
				c-0.5-0.5-1.1-0.8-1.9-0.8c-0.8,0-1.4,0.3-1.9,0.8c-0.5,0.5-0.7,1.3-0.7,2.3c0,1,0.2,1.8,0.7,2.3c0.5,0.5,1.1,0.8,1.8,0.8
				C-186.5,74.6-185.9,74.3-185.4,73.8z"/>
			<path class="st2" d="M-172.9,74.2l2.7-9h4.1l-4.5,12.6h-4.8l-4.5-12.6h4.1L-172.9,74.2z"/>
			<path class="st2" d="M-164.5,68c0.5-1,1.2-1.7,2-2.3c0.8-0.5,1.8-0.8,2.8-0.8c0.9,0,1.7,0.2,2.3,0.5s1.2,0.8,1.5,1.4v-1.8h3.9
				v12.6h-3.9V76c-0.4,0.6-0.9,1.1-1.6,1.4s-1.5,0.5-2.3,0.5c-1,0-2-0.3-2.8-0.8c-0.8-0.5-1.5-1.3-2-2.3c-0.5-1-0.7-2.1-0.7-3.4
				C-165.2,70.1-165,69-164.5,68z M-156.5,69.2c-0.5-0.6-1.2-0.8-2-0.8c-0.8,0-1.4,0.3-2,0.8c-0.5,0.6-0.8,1.3-0.8,2.3
				c0,1,0.3,1.7,0.8,2.3c0.5,0.6,1.2,0.8,2,0.8c0.8,0,1.4-0.3,2-0.8c0.5-0.6,0.8-1.3,0.8-2.3S-156,69.7-156.5,69.2z"/>
			<path class="st2" d="M-149,68c0.5-1,1.3-1.7,2.2-2.3s2.1-0.8,3.3-0.8c1.6,0,2.9,0.4,4,1.2c1.1,0.8,1.8,2,2.1,3.5h-4.1
				c-0.3-1-1-1.4-2-1.4c-0.7,0-1.3,0.3-1.7,0.8c-0.4,0.6-0.6,1.3-0.6,2.4s0.2,1.8,0.6,2.4c0.4,0.6,1,0.8,1.7,0.8c1,0,1.7-0.5,2-1.4
				h4.1c-0.3,1.5-1,2.6-2.1,3.5c-1.1,0.8-2.4,1.3-4,1.3c-1.2,0-2.3-0.3-3.3-0.8c-1-0.5-1.7-1.3-2.2-2.3c-0.5-1-0.8-2.1-0.8-3.4
				C-149.8,70.2-149.6,69-149,68z"/>
			<path class="st2" d="M-135.1,63.2c-0.4-0.4-0.6-0.9-0.6-1.5c0-0.6,0.2-1.1,0.6-1.5s1-0.6,1.7-0.6c0.7,0,1.2,0.2,1.6,0.6
				s0.6,0.9,0.6,1.5c0,0.6-0.2,1.1-0.6,1.5c-0.4,0.4-1,0.6-1.6,0.6C-134.1,63.8-134.7,63.6-135.1,63.2z M-131.5,65.2v12.6h-3.9V65.2
				H-131.5z"/>
			<path class="st2" d="M-126.3,77.2c-1-0.5-1.8-1.3-2.3-2.3c-0.6-1-0.8-2.1-0.8-3.4c0-1.3,0.3-2.4,0.9-3.4c0.6-1,1.4-1.7,2.4-2.3
				c1-0.5,2.1-0.8,3.3-0.8s2.4,0.3,3.3,0.8c1,0.5,1.8,1.3,2.4,2.3c0.6,1,0.9,2.1,0.9,3.4s-0.3,2.4-0.9,3.4c-0.6,1-1.4,1.7-2.4,2.3
				c-1,0.5-2.1,0.8-3.4,0.8C-124.2,78-125.3,77.7-126.3,77.2z M-121.1,73.8c0.5-0.5,0.8-1.3,0.8-2.3s-0.3-1.8-0.8-2.3
				c-0.5-0.5-1.1-0.8-1.9-0.8c-0.8,0-1.4,0.3-1.9,0.8c-0.5,0.5-0.7,1.3-0.7,2.3c0,1,0.2,1.8,0.7,2.3c0.5,0.5,1.1,0.8,1.8,0.8
				C-122.2,74.6-121.6,74.3-121.1,73.8z"/>
			<path class="st2" d="M-103.1,66.5c0.9,1,1.3,2.3,1.3,3.9v7.4h-3.8v-6.9c0-0.8-0.2-1.5-0.7-2c-0.4-0.5-1-0.7-1.8-0.7
				s-1.3,0.2-1.8,0.7c-0.4,0.5-0.7,1.1-0.7,2v6.9h-3.9V65.2h3.9v1.7c0.4-0.6,0.9-1,1.6-1.3c0.7-0.3,1.4-0.5,2.2-0.5
				C-105.1,65-104,65.5-103.1,66.5z"/>
			<path class="st2" d="M-83.9,62.9c1.3,0.7,2.2,1.6,2.9,2.8c0.7,1.2,1,2.6,1,4.1c0,1.6-0.3,2.9-1,4.1c-0.7,1.2-1.7,2.1-2.9,2.8
				c-1.3,0.7-2.7,1-4.4,1h-5.9V61.9h5.9C-86.7,61.9-85.2,62.2-83.9,62.9z M-85.2,73.2c0.8-0.8,1.2-1.9,1.2-3.4
				c0-1.5-0.4-2.6-1.2-3.4c-0.8-0.8-2-1.2-3.4-1.2h-1.8v9.2h1.8C-87.1,74.4-86,74-85.2,73.2z"/>
			<path class="st2" d="M-77.5,63.2c-0.4-0.4-0.6-0.9-0.6-1.5c0-0.6,0.2-1.1,0.6-1.5s1-0.6,1.7-0.6c0.7,0,1.2,0.2,1.6,0.6
				s0.6,0.9,0.6,1.5c0,0.6-0.2,1.1-0.6,1.5c-0.4,0.4-1,0.6-1.6,0.6C-76.6,63.8-77.1,63.6-77.5,63.2z M-74,65.2v12.6h-3.9V65.2H-74z"
				/>
			<path class="st2" d="M-64,65.5c0.7,0.4,1.2,0.8,1.5,1.4v-1.8h3.9v12.6c0,1.2-0.2,2.2-0.7,3.2c-0.5,0.9-1.2,1.7-2.1,2.3
				c-0.9,0.6-2.1,0.8-3.5,0.8c-1.9,0-3.4-0.4-4.5-1.3c-1.2-0.9-1.8-2.1-2-3.6h3.8c0.1,0.5,0.4,0.9,0.9,1.1c0.5,0.3,1,0.4,1.7,0.4
				c0.8,0,1.4-0.2,1.9-0.7s0.7-1.2,0.7-2.2V76c-0.4,0.6-0.9,1.1-1.6,1.4s-1.4,0.6-2.3,0.6c-1,0-2-0.3-2.8-0.8
				c-0.8-0.5-1.5-1.3-2-2.3c-0.5-1-0.7-2.1-0.7-3.4c0-1.3,0.2-2.4,0.7-3.4c0.5-1,1.2-1.7,2-2.3c0.8-0.5,1.8-0.8,2.8-0.8
				C-65.5,65-64.7,65.2-64,65.5z M-63.3,69.2c-0.5-0.6-1.2-0.8-2-0.8s-1.4,0.3-2,0.8c-0.5,0.6-0.8,1.3-0.8,2.3c0,1,0.3,1.7,0.8,2.3
				c0.5,0.6,1.2,0.8,2,0.8s1.4-0.3,2-0.8c0.5-0.6,0.8-1.3,0.8-2.3S-62.7,69.7-63.3,69.2z"/>
			<path class="st2" d="M-55.5,63.2c-0.4-0.4-0.6-0.9-0.6-1.5c0-0.6,0.2-1.1,0.6-1.5s1-0.6,1.7-0.6c0.7,0,1.2,0.2,1.6,0.6
				s0.6,0.9,0.6,1.5c0,0.6-0.2,1.1-0.6,1.5c-0.4,0.4-1,0.6-1.6,0.6C-54.5,63.8-55.1,63.6-55.5,63.2z M-51.9,65.2v12.6h-3.9V65.2
				H-51.9z"/>
			<path class="st2" d="M-42.1,74.5v3.3h-2c-1.4,0-2.5-0.3-3.3-1c-0.8-0.7-1.2-1.8-1.2-3.4v-5h-1.5v-3.2h1.5v-3.1h3.9v3.1h2.5v3.2
				h-2.5v5.1c0,0.4,0.1,0.6,0.3,0.8c0.2,0.2,0.5,0.2,0.9,0.2H-42.1z"/>
			<path class="st2" d="M-40,68c0.5-1,1.2-1.7,2-2.3c0.8-0.5,1.8-0.8,2.8-0.8c0.9,0,1.7,0.2,2.3,0.5c0.7,0.4,1.2,0.8,1.5,1.4v-1.8
				h3.9v12.6h-3.9V76c-0.4,0.6-0.9,1.1-1.6,1.4c-0.7,0.4-1.5,0.5-2.3,0.5c-1,0-2-0.3-2.8-0.8c-0.8-0.5-1.5-1.3-2-2.3
				c-0.5-1-0.7-2.1-0.7-3.4C-40.7,70.1-40.5,69-40,68z M-32.1,69.2c-0.5-0.6-1.2-0.8-2-0.8s-1.4,0.3-2,0.8c-0.5,0.6-0.8,1.3-0.8,2.3
				c0,1,0.3,1.7,0.8,2.3c0.5,0.6,1.2,0.8,2,0.8s1.4-0.3,2-0.8c0.5-0.6,0.8-1.3,0.8-2.3S-31.5,69.7-32.1,69.2z"/>
			<path class="st2" d="M-20.7,61v16.7h-3.9V61H-20.7z"/>
		</g>
	</g>
	<g>
		<g>
			<path class="st2" d="M-300.3,63.5v8.4h-2.1v-5l-1.9,5h-1.7l-1.9-5.1v5.1h-2.1v-8.4h2.4l2.4,5.8l2.3-5.8H-300.3z"/>
			<path class="st2" d="M-296.8,63.5v8.4h-2.1v-8.4H-296.8z"/>
			<path class="st2" d="M-287.8,71.9h-2.1l-3.4-5.2v5.2h-2.1v-8.4h2.1l3.4,5.2v-5.2h2.1V71.9z"/>
			<path class="st2" d="M-280.2,67.5c-0.2,0.4-0.6,0.7-1,1c-0.5,0.2-1,0.4-1.7,0.4h-1.3v3h-2.1v-8.4h3.3c0.7,0,1.2,0.1,1.7,0.3
				c0.5,0.2,0.8,0.6,1,1c0.2,0.4,0.3,0.9,0.3,1.4C-279.9,66.6-280,67.1-280.2,67.5z M-282.3,66.9c0.2-0.2,0.3-0.4,0.3-0.8
				s-0.1-0.6-0.3-0.8c-0.2-0.2-0.5-0.3-0.9-0.3h-1.1v2.1h1.1C-282.7,67.2-282.4,67.1-282.3,66.9z"/>
			<path class="st2" d="M-274.5,71.9l-1.8-3.2h-0.5v3.2h-2.1v-8.4h3.4c0.7,0,1.2,0.1,1.7,0.3c0.5,0.2,0.8,0.5,1,1
				c0.2,0.4,0.3,0.9,0.3,1.3c0,0.6-0.2,1.1-0.5,1.5c-0.3,0.4-0.8,0.8-1.4,0.9l1.9,3.3H-274.5z M-276.8,67.2h1.3
				c0.4,0,0.7-0.1,0.8-0.3c0.2-0.2,0.3-0.4,0.3-0.8c0-0.3-0.1-0.6-0.3-0.8c-0.2-0.2-0.5-0.3-0.8-0.3h-1.3V67.2z"/>
			<path class="st2" d="M-268.9,65.1v1.7h2.7v1.6h-2.7v1.8h3.1v1.6h-5.2v-8.4h5.2v1.6H-268.9z"/>
		</g>
	</g>
	<g>
		<g>
			<g>
				<circle class="st1" cx="-313.3" cy="68.2" r="1.1"/>
			</g>
			<g>
				<circle class="st1" cx="-306.7" cy="76.1" r="1.1"/>
			</g>
			<g>
				<circle class="st1" cx="-315.7" cy="74.3" r="0.5"/>
			</g>
			<g>
				<circle class="st1" cx="-313.4" cy="77.1" r="0.5"/>
			</g>
		</g>
		<g>
			<g>
				<path class="st1" d="M-313.3,70.9c-0.8,0-1.5-0.3-2-0.9c-0.4-0.5-0.7-1.2-0.6-1.9s0.4-1.3,0.9-1.8c1.1-0.9,2.8-0.8,3.7,0.3
					c0.9,1.1,0.8,2.8-0.3,3.7l0,0C-312.1,70.7-312.7,70.9-313.3,70.9z M-313.3,66.1c-0.5,0-1,0.2-1.4,0.5c-0.4,0.4-0.7,0.9-0.8,1.4
					c-0.1,0.6,0.1,1.1,0.5,1.5c0.7,0.9,2.1,1,3,0.3l0,0c0.9-0.7,1-2.1,0.3-3C-312.1,66.4-312.7,66.1-313.3,66.1z"/>
			</g>
			<g>
				<polygon class="st1" points="-331.1,79.6 -331.5,79.2 -325.4,74.1 -321.3,74.5 -315.3,69.6 -315,70 -321.1,75 -325.2,74.7 				
					"/>
			</g>
			<g>
				<path class="st1" d="M-306.8,78.8c-0.8,0-1.5-0.3-2-0.9c-0.9-1.1-0.8-2.8,0.3-3.7l0,0c1.1-0.9,2.8-0.8,3.7,0.3
					c0.9,1.1,0.8,2.8-0.3,3.7C-305.6,78.6-306.2,78.8-306.8,78.8z M-308.1,74.5L-308.1,74.5c-0.9,0.7-1,2.1-0.3,3
					c0.7,0.9,2.1,1,3,0.3c0.9-0.7,1-2.1,0.3-3C-305.9,73.9-307.2,73.8-308.1,74.5z"/>
			</g>
			<g>
				<polygon class="st1" points="-321.8,92.9 -322.1,92.5 -315.2,86.7 -314.8,82.6 -308.7,77.5 -308.4,77.8 -314.3,82.8 -314.7,87 
									"/>
			</g>
			<g>
				<g>
					<polygon class="st1" points="-327.4,85.4 -327.7,85 -324.5,82.3 -320.7,82.8 -314.5,77.6 -314.2,78 -320.5,83.3 -324.4,82.8 
											"/>
				</g>
			</g>
			<g>
				<path class="st1" d="M-315.8,75.7c-0.4,0-0.8-0.2-1.1-0.5c-0.5-0.6-0.4-1.5,0.2-2c0.3-0.2,0.7-0.4,1.1-0.3c0.4,0,0.7,0.2,1,0.5
					c0.5,0.6,0.4,1.5-0.2,2C-315.1,75.6-315.4,75.7-315.8,75.7z M-315.8,73.4c-0.2,0-0.4,0.1-0.6,0.2l0,0c-0.4,0.3-0.5,0.9-0.1,1.3
					c0.3,0.4,0.9,0.5,1.3,0.1c0.4-0.3,0.5-0.9,0.1-1.3C-315.2,73.5-315.4,73.4-315.8,73.4C-315.7,73.4-315.7,73.4-315.8,73.4z"/>
			</g>
			<g>
				<path class="st1" d="M-313.4,78.5c-0.4,0-0.8-0.2-1.1-0.5c-0.5-0.6-0.4-1.5,0.2-2l0,0c0.6-0.5,1.5-0.4,2,0.2
					c0.5,0.6,0.4,1.5-0.2,2C-312.8,78.4-313.1,78.5-313.4,78.5z M-314.1,76.4L-314.1,76.4c-0.4,0.3-0.5,0.9-0.1,1.3
					c0.3,0.4,0.9,0.5,1.3,0.1c0.4-0.3,0.5-0.9,0.1-1.3S-313.7,76-314.1,76.4z"/>
			</g>
			<g>
				<polygon class="st1" points="-326.2,87.1 -326.5,86.7 -323.4,84 -323.1,80.2 -316.8,74.9 -316.5,75.3 -322.6,80.4 -322.9,84.3 
									"/>
			</g>
		</g>
	</g>
	<g>
		<defs>
			<path id="SVGID_1_" d="M-290.6,9.4l36.2,17.4l8.9,39.2l-25,31.4h-40.2l-25-31.4l8.9-39.2L-290.6,9.4 M-290.6,1.1l-42.7,20.6
				l-10.5,46.2l29.5,37h47.4l29.5-37l-10.5-46.2L-290.6,1.1L-290.6,1.1z"/>
		</defs>
		<clipPath id="SVGID_00000124855068258958045290000013550031147139931810_">
			<use xlink:href="#SVGID_1_"  style="overflow:visible;"/>
		</clipPath>
		<g style="clip-path:url(#SVGID_00000124855068258958045290000013550031147139931810_);">
			<polygon class="st4" points="-288.2,20.7 -304.9,-9.5 -309.6,17.5 -314.9,47.4 -276.3,77 -263.3,65.6 			"/>
			<polygon class="st5" points="-364.4,9.4 -328.1,122.5 -314.9,47.4 			"/>
			<polygon class="st1" points="-314.9,47.4 -328.1,122.5 -276.3,77 			"/>
			<polygon class="st6" points="-223.1,30.3 -304.9,-9.5 -288.2,20.7 			"/>
			<polygon class="st7" points="-304.9,-9.5 -364.4,9.4 -309.6,17.5 			"/>
			<polygon class="st8" points="-328.1,122.5 -242.6,102.9 -276.3,77 			"/>
			<polygon class="st9" points="-263.3,65.6 -223.1,30.3 -288.2,20.7 			"/>
			<polygon class="st10" points="-263.3,65.6 -242.6,102.9 -223.1,30.3 			"/>
			<polygon class="st11" points="-276.3,77 -242.6,102.9 -263.3,65.6 			"/>
			<polygon class="st12" points="-309.6,17.5 -364.4,9.4 -314.9,47.4 			"/>
			<polygon class="st13" points="-288.2,20.7 -304.9,-9.5 -309.6,17.5 			"/>
		</g>
	</g>
	<g>
		<defs>
			<path id="SVGID_00000015318356566341586350000009126811954032522170_" d="M-306.7,61.8c-0.1-0.1-0.1-0.2-0.1-0.3V39.7
				c0-0.1,0-0.2,0.1-0.3c0.1-0.1,0.2-0.1,0.3-0.1h3c0.1,0,0.2,0,0.3,0.1c0.1,0.1,0.1,0.2,0.1,0.3v18.9c0,0.1,0.1,0.2,0.2,0.2h8.9
				c0.1,0,0.2,0,0.3,0.1c0.1,0.1,0.1,0.2,0.1,0.3v2.5c0,0.1,0,0.2-0.1,0.3c-0.1,0.1-0.2,0.1-0.3,0.1h-12.4
				C-306.6,62-306.7,61.9-306.7,61.8z M-290.8,61.8c-0.1-0.1-0.1-0.2-0.1-0.3V39.7c0-0.1,0-0.2,0.1-0.3c0.1-0.1,0.2-0.1,0.3-0.1h3
				c0.1,0,0.2,0,0.3,0.1c0.1,0.1,0.1,0.2,0.1,0.3v21.9c0,0.1,0,0.2-0.1,0.3c-0.1,0.1-0.2,0.1-0.3,0.1h-3
				C-290.6,62-290.7,61.9-290.8,61.8z M-282.9,61.8c-0.1-0.1-0.1-0.2-0.1-0.3V39.7c0-0.1,0-0.2,0.1-0.3c0.1-0.1,0.2-0.1,0.3-0.1h6.7
				c2.1,0,3.8,0.6,5,1.7c1.3,1.2,1.9,2.7,1.9,4.7v9.8c0,1.9-0.6,3.5-1.9,4.7c-1.3,1.2-2.9,1.7-5,1.7h-6.7
				C-282.7,62-282.8,61.9-282.9,61.8z M-279.1,58.7l3.2,0c0.9,0,1.7-0.3,2.2-1c0.6-0.6,0.9-1.5,0.9-2.6v-9c0-1.1-0.3-2-0.9-2.6
				c-0.6-0.6-1.3-1-2.3-1h-3.2c-0.1,0-0.2,0.1-0.2,0.2v15.9C-279.3,58.7-279.2,58.7-279.1,58.7z"/>
		</defs>
		<clipPath id="SVGID_00000074421975231917946900000014107171573479785385_">
			<use xlink:href="#SVGID_00000015318356566341586350000009126811954032522170_"  style="overflow:visible;"/>
		</clipPath>
		<g style="clip-path:url(#SVGID_00000074421975231917946900000014107171573479785385_);">
			<polygon class="st4" points="-292.1,26.1 -302.4,7.4 -305.4,24.1 -308.6,42.6 -284.8,60.9 -276.7,53.9 			"/>
			<polygon class="st5" points="-339.3,19.1 -316.8,89.1 -308.6,42.6 			"/>
			<polygon class="st1" points="-308.6,42.6 -316.8,89.1 -284.8,60.9 			"/>
			<polygon class="st6" points="-251.8,32.1 -302.4,7.4 -292.1,26.1 			"/>
			<polygon class="st7" points="-302.4,7.4 -339.3,19.1 -305.4,24.1 			"/>
			<polygon class="st8" points="-316.8,89.1 -263.9,77 -284.8,60.9 			"/>
			<polygon class="st9" points="-276.7,53.9 -251.8,32.1 -292.1,26.1 			"/>
			<polygon class="st10" points="-276.7,53.9 -263.9,77 -251.8,32.1 			"/>
			<polygon class="st11" points="-284.8,60.9 -263.9,77 -276.7,53.9 			"/>
			<polygon class="st12" points="-305.4,24.1 -339.3,19.1 -308.6,42.6 			"/>
			<polygon class="st13" points="-292.1,26.1 -302.4,7.4 -305.4,24.1 			"/>
		</g>
	</g>
</g>
<g>
	<g>
		<g>
			<circle class="st15" cx="-487.5" cy="114.9" r="3.5"/>
			<circle class="st1" cx="-466.4" cy="141.5" r="3.5"/>
			<circle class="st15" cx="-496" cy="134.7" r="1.7"/>
			<circle class="st15" cx="-488.6" cy="144.1" r="1.7"/>
			<circle class="st15" cx="-530.3" cy="148" r="2.3"/>
			<circle class="st1" cx="-509.8" cy="173.8" r="2.3"/>
		</g>
		<g>
			<circle class="st16" cx="-487.6" cy="115.1" r="7.8"/>
			<polyline class="st16" points="-493.7,119.9 -514,135.9 -527.6,134.3 -567.2,165.8 			"/>
			<circle class="st17" cx="-466.6" cy="141.5" r="7.8"/>
			<polyline class="st17" points="-472.7,146.3 -492.8,162.5 -494.4,176.1 -534,207.6 			"/>
			<g>
				<polyline class="st16" points="-491.8,146.5 -512.8,163.1 -525.3,161.2 -553.2,183.4 				"/>
			</g>
			<circle class="st16" cx="-496.1" cy="134.7" r="3.9"/>
			<circle class="st16" cx="-488.7" cy="144.1" r="3.9"/>
			<polyline class="st16" points="-499.1,137.2 -520,154 -521.1,166.6 -549,188.8 			"/>
			<circle class="st16" cx="-530.4" cy="148" r="5.2"/>
			<polyline class="st16" points="-534.5,151.2 -547.8,161.9 -548.8,170.9 -557.4,177.7 			"/>
			<circle class="st17" cx="-509.8" cy="174" r="5.2"/>
			<polyline class="st17" points="-513.8,177.2 -527.3,187.8 -536.3,186.7 -545.1,193.7 			"/>
		</g>
	</g>
	<g>
		<defs>
			<path id="SVGID_00000117639389093318764810000007799310389784639392_" d="M-503.8,88.9l48.3,23.3l11.9,52.3l-33.5,42h-53.7
				l-33.5-42l11.9-52.3L-503.8,88.9 M-503.8,77.8l-57,27.5l-14.1,61.7l39.5,49.5h63.3l39.5-49.5l-14.1-61.7L-503.8,77.8L-503.8,77.8
				z"/>
		</defs>
		<clipPath id="SVGID_00000183944361782070178910000000391593296579554978_">
			<use xlink:href="#SVGID_00000117639389093318764810000007799310389784639392_"  style="overflow:visible;"/>
		</clipPath>
		<g style="clip-path:url(#SVGID_00000183944361782070178910000000391593296579554978_);">
			<polygon class="st4" points="-501.2,103.9 -523.6,63.4 -530,99.6 -537.1,139.8 -485.3,179.6 -467.7,164.2 			"/>
			<polygon class="st5" points="-603.5,88.7 -554.8,240.6 -537.1,139.8 			"/>
			<polygon class="st1" points="-537.1,139.8 -554.8,240.6 -485.3,179.6 			"/>
			<polygon class="st6" points="-413.8,116.9 -523.6,63.4 -501.2,103.9 			"/>
			<polygon class="st7" points="-523.6,63.4 -603.5,88.7 -530,99.6 			"/>
			<polygon class="st8" points="-554.8,240.6 -439.9,214.3 -485.3,179.6 			"/>
			<polygon class="st9" points="-467.7,164.2 -413.8,116.9 -501.2,103.9 			"/>
			<polygon class="st10" points="-467.7,164.2 -439.9,214.3 -413.8,116.9 			"/>
			<polygon class="st11" points="-485.3,179.6 -439.9,214.3 -467.7,164.2 			"/>
			<polygon class="st12" points="-530,99.6 -603.5,88.7 -537.1,139.8 			"/>
			<polygon class="st13" points="-501.2,103.9 -523.6,63.4 -530,99.6 			"/>
		</g>
	</g>
</g>
<g>
	<g>
		<g>
			<g>
				<g>
					<circle class="st0" cx="78.5" cy="43.3" r="1.1"/>
				</g>
				<g>
					<circle class="st0" cx="71.6" cy="35.7" r="1.1"/>
				</g>
				<g>
					<circle class="st0" cx="80.7" cy="37.1" r="0.5"/>
				</g>
				<g>
					<circle class="st0" cx="78.2" cy="34.4" r="0.5"/>
				</g>
			</g>
			<g>
				<g>
					<path class="st0" d="M78.5,45.9c0,0-0.1,0-0.1,0c-0.7,0-1.3-0.3-1.8-0.9c-1-1.1-0.9-2.7,0.2-3.7c0.5-0.5,1.2-0.7,1.9-0.7
						c0.7,0,1.3,0.3,1.8,0.9c0.5,0.5,0.7,1.2,0.7,1.9c0,0.7-0.3,1.3-0.9,1.8C79.8,45.6,79.2,45.9,78.5,45.9z M78.5,41.1
						c-0.5,0-1,0.2-1.4,0.6c-0.9,0.8-0.9,2.1-0.1,3c0.4,0.4,0.9,0.7,1.5,0.7c0.6,0,1.1-0.2,1.5-0.5c0.4-0.4,0.7-0.9,0.7-1.5
						c0-0.6-0.2-1.1-0.5-1.5c-0.4-0.4-0.9-0.7-1.5-0.7C78.6,41.1,78.6,41.1,78.5,41.1z"/>
				</g>
				<g>
					<polygon class="st0" points="80.4,41.8 80.1,41.5 86,36.1 90.2,36.3 97.9,29.3 98.2,29.7 90.4,36.9 86.2,36.7 					"/>
				</g>
				<g>
					<path class="st0" d="M71.6,38.3c0,0-0.1,0-0.1,0c-0.7,0-1.3-0.3-1.8-0.9c-0.5-0.5-0.7-1.2-0.7-1.9c0-0.7,0.3-1.3,0.9-1.8
						c1.1-1,2.7-0.9,3.7,0.2c0.5,0.5,0.7,1.2,0.7,1.9c0,0.7-0.3,1.3-0.9,1.8C72.9,38,72.3,38.3,71.6,38.3z M71.6,33.6
						c-0.5,0-1,0.2-1.4,0.6c-0.4,0.4-0.7,0.9-0.7,1.5c0,0.6,0.2,1.1,0.5,1.5c0.4,0.4,0.9,0.7,1.5,0.7c0.6,0,1.1-0.2,1.5-0.5l0,0
						c0.4-0.4,0.7-0.9,0.7-1.5c0-0.6-0.2-1.1-0.5-1.5C72.8,33.8,72.2,33.6,71.6,33.6z"/>
				</g>
				<g>
					<polygon class="st0" points="73.5,34.3 73.2,33.9 78.9,28.6 79.1,24.5 86.6,17.7 86.9,18 79.6,24.7 79.4,28.9 					"/>
				</g>
				<g>
					<g>
						<polygon class="st0" points="79.3,33.8 79,33.5 85.1,27.9 88.9,28.2 94.9,22.8 95.2,23.2 89.1,28.7 85.3,28.5 						"/>
					</g>
				</g>
				<g>
					<path class="st0" d="M80.7,38.6c-0.4,0-0.8-0.2-1.1-0.5c-0.5-0.6-0.5-1.5,0.1-2c0.6-0.5,1.5-0.5,2,0.1c0.5,0.6,0.5,1.5-0.1,2h0
						C81.4,38.4,81.1,38.6,80.7,38.6z M80.7,36.2c-0.2,0-0.5,0.1-0.6,0.2c-0.4,0.3-0.4,0.9-0.1,1.3c0.3,0.4,0.9,0.4,1.3,0.1
						c0.4-0.3,0.4-0.9,0.1-1.3C81.2,36.3,81,36.2,80.7,36.2z"/>
				</g>
				<g>
					<path class="st0" d="M78.3,35.9c-0.4,0-0.8-0.2-1.1-0.5c-0.5-0.6-0.5-1.5,0.1-2c0.6-0.5,1.5-0.5,2,0.1c0.5,0.6,0.5,1.5-0.1,2h0
						C79,35.8,78.6,35.9,78.3,35.9z M78.3,33.5c-0.2,0-0.5,0.1-0.6,0.2c-0.4,0.3-0.4,0.9-0.1,1.3c0.3,0.4,0.9,0.4,1.3,0.1
						c0.4-0.3,0.4-0.9,0.1-1.3C78.8,33.6,78.5,33.5,78.3,33.5z"/>
				</g>
				<g>
					<polygon class="st0" points="81.7,36.5 81.4,36.1 87.3,30.7 87.4,26.8 93.2,21.6 93.5,22 87.9,27.1 87.8,30.9 					"/>
				</g>
			</g>
		</g>
		<g>
			<g>
				<circle class="st0" cx="81.1" cy="29.3" r="0.5"/>
			</g>
			<g>
				<path class="st0" d="M81.1,30.7c-0.4,0-0.8-0.2-1-0.5c-0.5-0.6-0.5-1.5,0.1-2l0,0c0.3-0.3,0.6-0.4,1-0.4c0.4,0,0.7,0.2,1,0.5
					s0.4,0.6,0.4,1c0,0.4-0.2,0.7-0.5,1C81.8,30.6,81.4,30.7,81.1,30.7z M80.4,28.5L80.4,28.5c-0.4,0.4-0.4,1-0.1,1.4
					c0.4,0.4,1,0.4,1.4,0.1c0.2-0.2,0.3-0.4,0.3-0.7c0-0.3-0.1-0.5-0.3-0.7c-0.2-0.2-0.4-0.3-0.7-0.3C80.9,28.3,80.6,28.4,80.4,28.5
					z"/>
			</g>
			<g>
				<polygon class="st0" points="82.1,28.6 81.9,28.3 84.9,25.6 87,25.7 88.9,23.9 89.2,24.2 87.2,26.1 85.1,26 				"/>
			</g>
		</g>
		<g>
			<g>
				<path class="st0" d="M86.2,35.9C86.2,35.9,86.2,35.9,86.2,35.9c-0.4,0-0.8-0.2-1-0.5c-0.3-0.3-0.4-0.6-0.4-1
					c0-0.4,0.2-0.7,0.5-1c0.6-0.5,1.5-0.5,2,0.1c0.5,0.6,0.5,1.5-0.1,2l0,0C86.9,35.8,86.6,35.9,86.2,35.9z M86.2,33.5
					c-0.2,0-0.5,0.1-0.7,0.3c-0.2,0.2-0.3,0.4-0.3,0.7c0,0.3,0.1,0.5,0.3,0.7c0.2,0.2,0.4,0.3,0.7,0.3c0.3,0,0.5-0.1,0.7-0.3l0,0
					c0.4-0.4,0.4-1,0.1-1.4C86.8,33.6,86.5,33.5,86.2,33.5z"/>
			</g>
			<g>
				<circle class="st0" cx="86.2" cy="34.5" r="0.5"/>
			</g>
			<g>
				<polygon class="st0" points="87.3,33.8 87,33.5 89.9,30.9 90,28.7 92,26.9 92.3,27.2 90.4,28.9 90.3,31 				"/>
			</g>
		</g>
	</g>
	<g>
		<g>
			<path class="st1" d="M27.4,85.1c-0.5,0-1-0.2-1.4-0.7c-0.3-0.4-0.5-0.8-0.4-1.3c0-0.5,0.3-0.9,0.6-1.2c0.8-0.6,1.9-0.5,2.6,0.2
				c0.6,0.8,0.5,1.9-0.2,2.6l0,0C28.3,84.9,27.9,85.1,27.4,85.1z M27.4,81.9c-0.3,0-0.6,0.1-0.8,0.3c-0.3,0.2-0.4,0.5-0.5,0.9
				s0.1,0.7,0.3,1c0.5,0.6,1.3,0.6,1.9,0.2l0,0c0.3-0.2,0.4-0.5,0.5-0.9s-0.1-0.7-0.3-1C28.2,82.1,27.8,81.9,27.4,81.9z"/>
		</g>
		<g>
			<polygon class="st1" points="19,88 18.7,87.6 19.4,87 22.2,87.3 26.1,84.1 26.4,84.4 22.3,87.8 19.6,87.6 			"/>
		</g>
		<g>
			<circle class="st1" cx="27.4" cy="83.2" r="0.7"/>
		</g>
	</g>
	<g>
		<g>
			<path class="st1" d="M22.2,78.7c-0.5,0-1-0.2-1.4-0.7c-0.6-0.8-0.5-1.9,0.2-2.6l0,0c0.8-0.6,1.9-0.5,2.6,0.2
				c0.3,0.4,0.5,0.8,0.4,1.3c0,0.5-0.3,0.9-0.6,1.2C23,78.6,22.6,78.7,22.2,78.7z M21.4,75.9L21.4,75.9c-0.6,0.5-0.6,1.3-0.2,1.9
				c0.5,0.6,1.3,0.6,1.9,0.2c0.3-0.2,0.4-0.5,0.5-0.9s-0.1-0.7-0.3-1C22.8,75.5,21.9,75.4,21.4,75.9z"/>
		</g>
		<g>
			<polygon class="st1" points="16.2,84.8 15.9,84.4 16.5,83.8 16.8,81.1 20.8,77.7 21.2,78.1 17.3,81.3 17,84.1 			"/>
		</g>
		<g>
			<circle class="st1" cx="22.2" cy="76.9" r="0.7"/>
		</g>
	</g>
	<g>
		<g>
			<g>
				<circle class="st1" cx="31.3" cy="68.2" r="1.1"/>
			</g>
			<g>
				<circle class="st1" cx="37.9" cy="76.1" r="1.1"/>
			</g>
			<g>
				<circle class="st1" cx="28.9" cy="74.3" r="0.5"/>
			</g>
			<g>
				<circle class="st1" cx="31.2" cy="77.1" r="0.5"/>
			</g>
		</g>
		<g>
			<g>
				<path class="st1" d="M31.3,70.9c-0.8,0-1.5-0.3-2-0.9c-0.4-0.5-0.7-1.2-0.6-1.9s0.4-1.3,0.9-1.8c1.1-0.9,2.8-0.8,3.7,0.3
					c0.9,1.1,0.8,2.8-0.3,3.7l0,0C32.5,70.7,31.9,70.9,31.3,70.9z M31.3,66.1c-0.5,0-1,0.2-1.4,0.5c-0.4,0.4-0.7,0.9-0.8,1.4
					c-0.1,0.6,0.1,1.1,0.5,1.5c0.7,0.9,2.1,1,3,0.3l0,0c0.9-0.7,1-2.1,0.3-3C32.5,66.4,31.9,66.1,31.3,66.1z"/>
			</g>
			<g>
				<polygon class="st1" points="13.5,79.6 13.2,79.2 19.2,74.1 23.3,74.5 29.3,69.6 29.6,70 23.5,75 19.4,74.7 				"/>
			</g>
			<g>
				<path class="st1" d="M37.9,78.8c-0.8,0-1.5-0.3-2-0.9c-0.9-1.1-0.8-2.8,0.3-3.7l0,0c1.1-0.9,2.8-0.8,3.7,0.3
					c0.9,1.1,0.8,2.8-0.3,3.7C39,78.6,38.5,78.8,37.9,78.8z M36.5,74.5L36.5,74.5c-0.9,0.7-1,2.1-0.3,3c0.7,0.9,2.1,1,3,0.3
					c0.9-0.7,1-2.1,0.3-3C38.7,73.9,37.4,73.8,36.5,74.5z"/>
			</g>
			<g>
				<polygon class="st1" points="22.8,92.9 22.5,92.5 29.4,86.7 29.8,82.6 35.9,77.5 36.2,77.8 30.3,82.8 29.9,87 				"/>
			</g>
			<g>
				<g>
					<polygon class="st1" points="17.2,85.4 16.9,85 20.1,82.3 23.9,82.8 30.1,77.6 30.4,78 24.1,83.3 20.2,82.8 					"/>
				</g>
			</g>
			<g>
				<path class="st1" d="M28.8,75.7c-0.4,0-0.8-0.2-1.1-0.5c-0.5-0.6-0.4-1.5,0.2-2c0.3-0.2,0.7-0.4,1.1-0.3c0.4,0,0.7,0.2,1,0.5
					c0.5,0.6,0.4,1.5-0.2,2C29.5,75.6,29.2,75.7,28.8,75.7z M28.8,73.4c-0.2,0-0.4,0.1-0.6,0.2l0,0c-0.4,0.3-0.5,0.9-0.1,1.3
					c0.3,0.4,0.9,0.5,1.3,0.1c0.4-0.3,0.5-0.9,0.1-1.3C29.4,73.5,29.2,73.4,28.8,73.4C28.9,73.4,28.9,73.4,28.8,73.4z"/>
			</g>
			<g>
				<path class="st1" d="M31.2,78.5c-0.4,0-0.8-0.2-1.1-0.5c-0.5-0.6-0.4-1.5,0.2-2l0,0c0.6-0.5,1.5-0.4,2,0.2
					c0.5,0.6,0.4,1.5-0.2,2C31.8,78.4,31.5,78.5,31.2,78.5z M30.6,76.4L30.6,76.4c-0.4,0.3-0.5,0.9-0.1,1.3c0.3,0.4,0.9,0.5,1.3,0.1
					c0.4-0.3,0.5-0.9,0.1-1.3C31.6,76.1,31,76,30.6,76.4z"/>
			</g>
			<g>
				<polygon class="st1" points="18.4,87.1 18.1,86.7 21.3,84 21.5,80.2 27.8,74.9 28.1,75.3 22,80.4 21.7,84.3 				"/>
			</g>
		</g>
	</g>
	<g>
		<defs>
			<path id="SVGID_00000016767507451013835330000006648295677161749421_" d="M54,9.4l36.2,17.4l8.9,39.2l-25,31.4H33.9l-25-31.4
				l8.9-39.2L54,9.4 M54,1.1L11.3,21.6L0.8,67.8l29.5,37h47.4l29.5-37L96.7,21.6L54,1.1L54,1.1z"/>
		</defs>
		<clipPath id="SVGID_00000084526878980945442050000013142979546483835320_">
			<use xlink:href="#SVGID_00000016767507451013835330000006648295677161749421_"  style="overflow:visible;"/>
		</clipPath>
		<g style="clip-path:url(#SVGID_00000084526878980945442050000013142979546483835320_);">
			<polygon class="st4" points="56.4,20.7 39.7,-9.5 35,17.5 29.7,47.4 68.3,77 81.3,65.6 			"/>
			<polygon class="st5" points="-19.8,9.4 16.5,122.5 29.7,47.4 			"/>
			<polygon class="st1" points="29.7,47.4 16.5,122.5 68.3,77 			"/>
			<polygon class="st6" points="121.5,30.3 39.7,-9.5 56.4,20.7 			"/>
			<polygon class="st7" points="39.7,-9.5 -19.8,9.4 35,17.5 			"/>
			<polygon class="st8" points="16.5,122.5 102,102.9 68.3,77 			"/>
			<polygon class="st9" points="81.3,65.6 121.5,30.3 56.4,20.7 			"/>
			<polygon class="st10" points="81.3,65.6 102,102.9 121.5,30.3 			"/>
			<polygon class="st11" points="68.3,77 102,102.9 81.3,65.6 			"/>
			<polygon class="st12" points="35,17.5 -19.8,9.4 29.7,47.4 			"/>
			<polygon class="st13" points="56.4,20.7 39.7,-9.5 35,17.5 			"/>
		</g>
	</g>
	<g>
		<defs>
			<path id="SVGID_00000147917672967558854610000010710470920237740955_" d="M34.5,72c-0.1-0.1-0.1-0.2-0.1-0.3V45.4
				c0-0.1,0-0.2,0.1-0.3c0.1-0.1,0.2-0.1,0.3-0.1h3.6c0.1,0,0.2,0,0.3,0.1c0.1,0.1,0.1,0.2,0.1,0.3v22.7c0,0.1,0.1,0.2,0.2,0.2h10.7
				c0.1,0,0.2,0,0.3,0.1c0.1,0.1,0.1,0.2,0.1,0.3v3c0,0.1,0,0.2-0.1,0.3c-0.1,0.1-0.2,0.1-0.3,0.1h-15C34.7,72.2,34.6,72.1,34.5,72z
				 M53.7,72c-0.1-0.1-0.1-0.2-0.1-0.3V45.4c0-0.1,0-0.2,0.1-0.3c0.1-0.1,0.2-0.1,0.3-0.1h3.6c0.1,0,0.2,0,0.3,0.1
				c0.1,0.1,0.1,0.2,0.1,0.3v26.3c0,0.1,0,0.2-0.1,0.3c-0.1,0.1-0.2,0.1-0.3,0.1h-3.6C53.9,72.2,53.8,72.1,53.7,72z M63.2,72
				c-0.1-0.1-0.1-0.2-0.1-0.3V45.4c0-0.1,0-0.2,0.1-0.3c0.1-0.1,0.2-0.1,0.3-0.1h8.1c2.5,0,4.5,0.7,6.1,2.1c1.5,1.4,2.3,3.3,2.3,5.6
				v11.8c0,2.3-0.8,4.2-2.3,5.6c-1.5,1.4-3.5,2.1-6.1,2.1h-8.1C63.4,72.2,63.3,72.1,63.2,72z M67.8,68.3l3.9,0c1.1,0,2-0.4,2.7-1.1
				c0.7-0.8,1-1.8,1.1-3.1V53.1c0-1.3-0.3-2.4-1-3.2c-0.7-0.8-1.6-1.2-2.7-1.2h-3.9c-0.1,0-0.2,0.1-0.2,0.2v19.1
				C67.6,68.2,67.7,68.3,67.8,68.3z"/>
		</defs>
		<clipPath id="SVGID_00000176740967272941380880000010843424653977533609_">
			<use xlink:href="#SVGID_00000147917672967558854610000010710470920237740955_"  style="overflow:visible;"/>
		</clipPath>
		<g style="clip-path:url(#SVGID_00000176740967272941380880000010843424653977533609_);">
			<polygon class="st4" points="52.2,29 39.7,6.5 36.2,26.6 32.3,48.9 61,71 70.7,62.4 			"/>
			<polygon class="st5" points="-4.6,20.6 22.4,104.8 32.3,48.9 			"/>
			<polygon class="st1" points="32.3,48.9 22.4,104.8 61,71 			"/>
			<polygon class="st6" points="100.7,36.2 39.7,6.5 52.2,29 			"/>
			<polygon class="st7" points="39.7,6.5 -4.6,20.6 36.2,26.6 			"/>
			<polygon class="st8" points="22.4,104.8 86.1,90.3 61,71 			"/>
			<polygon class="st9" points="70.7,62.4 100.7,36.2 52.2,29 			"/>
			<polygon class="st10" points="70.7,62.4 86.1,90.3 100.7,36.2 			"/>
			<polygon class="st11" points="61,71 86.1,90.3 70.7,62.4 			"/>
			<polygon class="st12" points="36.2,26.6 -4.6,20.6 32.3,48.9 			"/>
			<polygon class="st13" points="52.2,29 39.7,6.5 36.2,26.6 			"/>
		</g>
	</g>
</g>
</svg>
