<?xml version="1.0" encoding="utf-8"?>
<!-- Generator: Adobe Illustrator 26.0.3, SVG Export Plug-In . SVG Version: 6.00 Build 0)  -->
<svg version="1.1" id="Capa_1" xmlns="http://www.w3.org/2000/svg" xmlns:xlink="http://www.w3.org/1999/xlink" x="0px" y="0px"
	 viewBox="0 0 107.9 105.5" style="enable-background:new 0 0 107.9 105.5;" xml:space="preserve">
<style type="text/css">
	.st0{fill:#426EAB;}
	.st1{fill:#FCB61A;}
	.st2{fill:#1C3D6F;}
	.st3{clip-path:url(#SVGID_00000166635160836618607610000012766099001856056465_);}
	.st4{fill:#1B3E6F;}
	.st5{fill:#E25C28;}
	.st6{fill:#3B6EAD;}
	.st7{fill:#ED273A;}
	.st8{fill:#30BBAD;}
	.st9{fill:#1F99BE;}
	.st10{fill:#71C499;}
	.st11{fill:#249A8D;}
	.st12{fill:#B1202A;}
	.st13{fill:#1C3C6D;}
	.st14{clip-path:url(#SVGID_00000048487162337955957620000000025377231664185780_);}
</style>
<g>
	<g>
		<g>
			<g>
				<g>
					<circle class="st0" cx="78.5" cy="43.3" r="1.1"/>
				</g>
				<g>
					<circle class="st0" cx="71.6" cy="35.7" r="1.1"/>
				</g>
				<g>
					<circle class="st0" cx="80.7" cy="37.1" r="0.5"/>
				</g>
				<g>
					<circle class="st0" cx="78.2" cy="34.4" r="0.5"/>
				</g>
			</g>
			<g>
				<g>
					<path class="st0" d="M78.5,45.9c0,0-0.1,0-0.1,0c-0.7,0-1.3-0.3-1.8-0.9c-1-1.1-0.9-2.7,0.2-3.7c0.5-0.5,1.2-0.7,1.9-0.7
						c0.7,0,1.3,0.3,1.8,0.9c0.5,0.5,0.7,1.2,0.7,1.9c0,0.7-0.3,1.3-0.9,1.8C79.8,45.6,79.2,45.9,78.5,45.9z M78.5,41.1
						c-0.5,0-1,0.2-1.4,0.6c-0.9,0.8-0.9,2.1-0.1,3c0.4,0.4,0.9,0.7,1.5,0.7c0.6,0,1.1-0.2,1.5-0.5c0.4-0.4,0.7-0.9,0.7-1.5
						c0-0.6-0.2-1.1-0.5-1.5c-0.4-0.4-0.9-0.7-1.5-0.7C78.6,41.1,78.6,41.1,78.5,41.1z"/>
				</g>
				<g>
					<polygon class="st0" points="80.4,41.8 80.1,41.5 86,36.1 90.2,36.3 97.9,29.3 98.2,29.7 90.4,36.9 86.2,36.7 					"/>
				</g>
				<g>
					<path class="st0" d="M71.6,38.3c0,0-0.1,0-0.1,0c-0.7,0-1.3-0.3-1.8-0.9c-0.5-0.5-0.7-1.2-0.7-1.9c0-0.7,0.3-1.3,0.9-1.8
						c1.1-1,2.7-0.9,3.7,0.2c0.5,0.5,0.7,1.2,0.7,1.9c0,0.7-0.3,1.3-0.9,1.8C72.9,38,72.3,38.3,71.6,38.3z M71.6,33.6
						c-0.5,0-1,0.2-1.4,0.6c-0.4,0.4-0.7,0.9-0.7,1.5c0,0.6,0.2,1.1,0.5,1.5c0.4,0.4,0.9,0.7,1.5,0.7c0.6,0,1.1-0.2,1.5-0.5l0,0
						c0.4-0.4,0.7-0.9,0.7-1.5c0-0.6-0.2-1.1-0.5-1.5C72.8,33.8,72.2,33.6,71.6,33.6z"/>
				</g>
				<g>
					<polygon class="st0" points="73.5,34.3 73.2,33.9 78.9,28.6 79.1,24.5 86.6,17.7 86.9,18 79.6,24.7 79.4,28.9 					"/>
				</g>
				<g>
					<g>
						<polygon class="st0" points="79.3,33.8 79,33.5 85.1,27.9 88.9,28.2 94.9,22.8 95.2,23.2 89.1,28.7 85.3,28.5 						"/>
					</g>
				</g>
				<g>
					<path class="st0" d="M80.7,38.6c-0.4,0-0.8-0.2-1.1-0.5c-0.5-0.6-0.5-1.5,0.1-2c0.6-0.5,1.5-0.5,2,0.1c0.5,0.6,0.5,1.5-0.1,2h0
						C81.4,38.4,81.1,38.6,80.7,38.6z M80.7,36.2c-0.2,0-0.5,0.1-0.6,0.2c-0.4,0.3-0.4,0.9-0.1,1.3c0.3,0.4,0.9,0.4,1.3,0.1
						c0.4-0.3,0.4-0.9,0.1-1.3C81.2,36.3,81,36.2,80.7,36.2z"/>
				</g>
				<g>
					<path class="st0" d="M78.3,35.9c-0.4,0-0.8-0.2-1.1-0.5c-0.5-0.6-0.5-1.5,0.1-2c0.6-0.5,1.5-0.5,2,0.1c0.5,0.6,0.5,1.5-0.1,2h0
						C79,35.8,78.6,35.9,78.3,35.9z M78.3,33.5c-0.2,0-0.5,0.1-0.6,0.2c-0.4,0.3-0.4,0.9-0.1,1.3c0.3,0.4,0.9,0.4,1.3,0.1
						c0.4-0.3,0.4-0.9,0.1-1.3C78.8,33.6,78.5,33.5,78.3,33.5z"/>
				</g>
				<g>
					<polygon class="st0" points="81.7,36.5 81.4,36.1 87.3,30.7 87.4,26.8 93.2,21.6 93.5,22 87.9,27.1 87.8,30.9 					"/>
				</g>
			</g>
		</g>
		<g>
			<g>
				<circle class="st0" cx="81.1" cy="29.3" r="0.5"/>
			</g>
			<g>
				<path class="st0" d="M81.1,30.7c-0.4,0-0.8-0.2-1-0.5c-0.5-0.6-0.5-1.5,0.1-2l0,0c0.3-0.3,0.6-0.4,1-0.4c0.4,0,0.7,0.2,1,0.5
					s0.4,0.6,0.4,1c0,0.4-0.2,0.7-0.5,1C81.8,30.6,81.4,30.7,81.1,30.7z M80.4,28.5L80.4,28.5c-0.4,0.4-0.4,1-0.1,1.4
					c0.4,0.4,1,0.4,1.4,0.1c0.2-0.2,0.3-0.4,0.3-0.7c0-0.3-0.1-0.5-0.3-0.7c-0.2-0.2-0.4-0.3-0.7-0.3C80.9,28.3,80.6,28.4,80.4,28.5
					z"/>
			</g>
			<g>
				<polygon class="st0" points="82.1,28.6 81.9,28.3 84.9,25.6 87,25.7 88.9,23.9 89.2,24.2 87.2,26.1 85.1,26 				"/>
			</g>
		</g>
		<g>
			<g>
				<path class="st0" d="M86.2,35.9C86.2,35.9,86.2,35.9,86.2,35.9c-0.4,0-0.8-0.2-1-0.5c-0.3-0.3-0.4-0.6-0.4-1
					c0-0.4,0.2-0.7,0.5-1c0.6-0.5,1.5-0.5,2,0.1c0.5,0.6,0.5,1.5-0.1,2l0,0C86.9,35.8,86.6,35.9,86.2,35.9z M86.2,33.5
					c-0.2,0-0.5,0.1-0.7,0.3c-0.2,0.2-0.3,0.4-0.3,0.7c0,0.3,0.1,0.5,0.3,0.7c0.2,0.2,0.4,0.3,0.7,0.3c0.3,0,0.5-0.1,0.7-0.3l0,0
					c0.4-0.4,0.4-1,0.1-1.4C86.8,33.6,86.5,33.5,86.2,33.5z"/>
			</g>
			<g>
				<circle class="st0" cx="86.2" cy="34.5" r="0.5"/>
			</g>
			<g>
				<polygon class="st0" points="87.3,33.8 87,33.5 89.9,30.9 90,28.7 92,26.9 92.3,27.2 90.4,28.9 90.3,31 				"/>
			</g>
		</g>
	</g>
	<g>
		<g>
			<path class="st1" d="M27.4,85.1c-0.5,0-1-0.2-1.4-0.7c-0.3-0.4-0.5-0.8-0.4-1.3c0-0.5,0.3-0.9,0.6-1.2c0.8-0.6,1.9-0.5,2.6,0.2
				c0.6,0.8,0.5,1.9-0.2,2.6l0,0C28.3,84.9,27.9,85.1,27.4,85.1z M27.4,81.9c-0.3,0-0.6,0.1-0.8,0.3c-0.3,0.2-0.4,0.5-0.5,0.9
				s0.1,0.7,0.3,1c0.5,0.6,1.3,0.6,1.9,0.2l0,0c0.3-0.2,0.4-0.5,0.5-0.9s-0.1-0.7-0.3-1C28.2,82.1,27.8,81.9,27.4,81.9z"/>
		</g>
		<g>
			<polygon class="st1" points="19,88 18.7,87.6 19.4,87 22.2,87.3 26.1,84.1 26.4,84.4 22.3,87.8 19.6,87.6 			"/>
		</g>
		<g>
			<circle class="st1" cx="27.4" cy="83.2" r="0.7"/>
		</g>
	</g>
	<g>
		<g>
			<path class="st1" d="M22.2,78.7c-0.5,0-1-0.2-1.4-0.7c-0.6-0.8-0.5-1.9,0.2-2.6l0,0c0.8-0.6,1.9-0.5,2.6,0.2
				c0.3,0.4,0.5,0.8,0.4,1.3c0,0.5-0.3,0.9-0.6,1.2C23,78.6,22.6,78.7,22.2,78.7z M21.4,75.9L21.4,75.9c-0.6,0.5-0.6,1.3-0.2,1.9
				c0.5,0.6,1.3,0.6,1.9,0.2c0.3-0.2,0.4-0.5,0.5-0.9s-0.1-0.7-0.3-1C22.8,75.5,21.9,75.4,21.4,75.9z"/>
		</g>
		<g>
			<polygon class="st1" points="16.2,84.8 15.9,84.4 16.5,83.8 16.8,81.1 20.8,77.7 21.2,78.1 17.3,81.3 17,84.1 			"/>
		</g>
		<g>
			<circle class="st1" cx="22.2" cy="76.9" r="0.7"/>
		</g>
	</g>
	<g>
		<g>
			<path class="st2" d="M44.3,63.5v8.4h-2.1v-5l-1.9,5h-1.7l-1.9-5.1v5.1h-2.1v-8.4h2.4l2.4,5.8l2.3-5.8H44.3z"/>
			<path class="st2" d="M47.8,63.5v8.4h-2.1v-8.4H47.8z"/>
			<path class="st2" d="M56.8,71.9h-2.1l-3.4-5.2v5.2h-2.1v-8.4h2.1l3.4,5.2v-5.2h2.1V71.9z"/>
			<path class="st2" d="M64.4,67.5c-0.2,0.4-0.6,0.7-1,1c-0.5,0.2-1,0.4-1.7,0.4h-1.3v3h-2.1v-8.4h3.3c0.7,0,1.2,0.1,1.7,0.3
				c0.5,0.2,0.8,0.6,1,1c0.2,0.4,0.3,0.9,0.3,1.4C64.7,66.6,64.6,67.1,64.4,67.5z M62.4,66.9c0.2-0.2,0.3-0.4,0.3-0.8
				s-0.1-0.6-0.3-0.8c-0.2-0.2-0.5-0.3-0.9-0.3h-1.1v2.1h1.1C61.9,67.2,62.2,67.1,62.4,66.9z"/>
			<path class="st2" d="M70.1,71.9l-1.8-3.2h-0.5v3.2h-2.1v-8.4h3.4c0.7,0,1.2,0.1,1.7,0.3c0.5,0.2,0.8,0.5,1,1
				c0.2,0.4,0.3,0.9,0.3,1.3c0,0.6-0.2,1.1-0.5,1.5c-0.3,0.4-0.8,0.8-1.4,0.9l1.9,3.3H70.1z M67.8,67.2h1.3c0.4,0,0.7-0.1,0.8-0.3
				c0.2-0.2,0.3-0.4,0.3-0.8c0-0.3-0.1-0.6-0.3-0.8c-0.2-0.2-0.5-0.3-0.8-0.3h-1.3V67.2z"/>
			<path class="st2" d="M75.7,65.1v1.7h2.7v1.6h-2.7v1.8h3.1v1.6h-5.2v-8.4h5.2v1.6H75.7z"/>
		</g>
	</g>
	<g>
		<g>
			<g>
				<circle class="st1" cx="31.3" cy="68.2" r="1.1"/>
			</g>
			<g>
				<circle class="st1" cx="37.9" cy="76.1" r="1.1"/>
			</g>
			<g>
				<circle class="st1" cx="28.9" cy="74.3" r="0.5"/>
			</g>
			<g>
				<circle class="st1" cx="31.2" cy="77.1" r="0.5"/>
			</g>
		</g>
		<g>
			<g>
				<path class="st1" d="M31.3,70.9c-0.8,0-1.5-0.3-2-0.9c-0.4-0.5-0.7-1.2-0.6-1.9s0.4-1.3,0.9-1.8c1.1-0.9,2.8-0.8,3.7,0.3
					c0.9,1.1,0.8,2.8-0.3,3.7l0,0C32.5,70.7,31.9,70.9,31.3,70.9z M31.3,66.1c-0.5,0-1,0.2-1.4,0.5c-0.4,0.4-0.7,0.9-0.8,1.4
					c-0.1,0.6,0.1,1.1,0.5,1.5c0.7,0.9,2.1,1,3,0.3l0,0c0.9-0.7,1-2.1,0.3-3C32.5,66.4,31.9,66.1,31.3,66.1z"/>
			</g>
			<g>
				<polygon class="st1" points="13.5,79.6 13.2,79.2 19.2,74.1 23.3,74.5 29.3,69.6 29.6,70 23.5,75 19.4,74.7 				"/>
			</g>
			<g>
				<path class="st1" d="M37.9,78.8c-0.8,0-1.5-0.3-2-0.9c-0.9-1.1-0.8-2.8,0.3-3.7l0,0c1.1-0.9,2.8-0.8,3.7,0.3
					c0.9,1.1,0.8,2.8-0.3,3.7C39,78.6,38.5,78.8,37.9,78.8z M36.5,74.5L36.5,74.5c-0.9,0.7-1,2.1-0.3,3c0.7,0.9,2.1,1,3,0.3
					c0.9-0.7,1-2.1,0.3-3C38.7,73.9,37.4,73.8,36.5,74.5z"/>
			</g>
			<g>
				<polygon class="st1" points="22.8,92.9 22.5,92.5 29.4,86.7 29.8,82.6 35.9,77.5 36.2,77.8 30.3,82.8 29.9,87 				"/>
			</g>
			<g>
				<g>
					<polygon class="st1" points="17.2,85.4 16.9,85 20.1,82.3 23.9,82.8 30.1,77.6 30.4,78 24.1,83.3 20.2,82.8 					"/>
				</g>
			</g>
			<g>
				<path class="st1" d="M28.8,75.7c-0.4,0-0.8-0.2-1.1-0.5c-0.5-0.6-0.4-1.5,0.2-2c0.3-0.2,0.7-0.4,1.1-0.3c0.4,0,0.7,0.2,1,0.5
					c0.5,0.6,0.4,1.5-0.2,2C29.5,75.6,29.2,75.7,28.8,75.7z M28.8,73.4c-0.2,0-0.4,0.1-0.6,0.2l0,0c-0.4,0.3-0.5,0.9-0.1,1.3
					c0.3,0.4,0.9,0.5,1.3,0.1c0.4-0.3,0.5-0.9,0.1-1.3C29.4,73.5,29.2,73.4,28.8,73.4C28.9,73.4,28.9,73.4,28.8,73.4z"/>
			</g>
			<g>
				<path class="st1" d="M31.2,78.5c-0.4,0-0.8-0.2-1.1-0.5c-0.5-0.6-0.4-1.5,0.2-2l0,0c0.6-0.5,1.5-0.4,2,0.2
					c0.5,0.6,0.4,1.5-0.2,2C31.8,78.4,31.5,78.5,31.2,78.5z M30.6,76.4L30.6,76.4c-0.4,0.3-0.5,0.9-0.1,1.3c0.3,0.4,0.9,0.5,1.3,0.1
					c0.4-0.3,0.5-0.9,0.1-1.3C31.6,76.1,31,76,30.6,76.4z"/>
			</g>
			<g>
				<polygon class="st1" points="18.4,87.1 18.1,86.7 21.3,84 21.5,80.2 27.8,74.9 28.1,75.3 22,80.4 21.7,84.3 				"/>
			</g>
		</g>
	</g>
	<g>
		<defs>
			<path id="SVGID_1_" d="M54,9.4l36.2,17.4l8.9,39.2l-25,31.4H33.9l-25-31.4l8.9-39.2L54,9.4 M54,1.1L11.3,21.6L0.8,67.8l29.5,37
				h47.4l29.5-37L96.7,21.6L54,1.1L54,1.1z"/>
		</defs>
		<clipPath id="SVGID_00000091729264544302399140000013747459917977234343_">
			<use xlink:href="#SVGID_1_"  style="overflow:visible;"/>
		</clipPath>
		<g style="clip-path:url(#SVGID_00000091729264544302399140000013747459917977234343_);">
			<polygon class="st4" points="56.4,20.7 39.7,-9.5 35,17.5 29.7,47.4 68.3,77 81.3,65.6 			"/>
			<polygon class="st5" points="-19.8,9.4 16.5,122.5 29.7,47.4 			"/>
			<polygon class="st1" points="29.7,47.4 16.5,122.5 68.3,77 			"/>
			<polygon class="st6" points="121.5,30.3 39.7,-9.5 56.4,20.7 			"/>
			<polygon class="st7" points="39.7,-9.5 -19.8,9.4 35,17.5 			"/>
			<polygon class="st8" points="16.5,122.5 102,102.9 68.3,77 			"/>
			<polygon class="st9" points="81.3,65.6 121.5,30.3 56.4,20.7 			"/>
			<polygon class="st10" points="81.3,65.6 102,102.9 121.5,30.3 			"/>
			<polygon class="st11" points="68.3,77 102,102.9 81.3,65.6 			"/>
			<polygon class="st12" points="35,17.5 -19.8,9.4 29.7,47.4 			"/>
			<polygon class="st13" points="56.4,20.7 39.7,-9.5 35,17.5 			"/>
		</g>
	</g>
	<g>
		<defs>
			<path id="SVGID_00000176039140284099267990000010604983316491112584_" d="M37.9,61.8c-0.1-0.1-0.1-0.2-0.1-0.3V39.7
				c0-0.1,0-0.2,0.1-0.3c0.1-0.1,0.2-0.1,0.3-0.1h3c0.1,0,0.2,0,0.3,0.1c0.1,0.1,0.1,0.2,0.1,0.3v18.9c0,0.1,0.1,0.2,0.2,0.2h8.9
				c0.1,0,0.2,0,0.3,0.1c0.1,0.1,0.1,0.2,0.1,0.3v2.5c0,0.1,0,0.2-0.1,0.3c-0.1,0.1-0.2,0.1-0.3,0.1H38.2C38,62,38,61.9,37.9,61.8z
				 M53.8,61.8c-0.1-0.1-0.1-0.2-0.1-0.3V39.7c0-0.1,0-0.2,0.1-0.3c0.1-0.1,0.2-0.1,0.3-0.1h3c0.1,0,0.2,0,0.3,0.1
				c0.1,0.1,0.1,0.2,0.1,0.3v21.9c0,0.1,0,0.2-0.1,0.3c-0.1,0.1-0.2,0.1-0.3,0.1h-3C54,62,53.9,61.9,53.8,61.8z M61.7,61.8
				c-0.1-0.1-0.1-0.2-0.1-0.3V39.7c0-0.1,0-0.2,0.1-0.3c0.1-0.1,0.2-0.1,0.3-0.1h6.7c2.1,0,3.8,0.6,5,1.7c1.3,1.2,1.9,2.7,1.9,4.7
				v9.8c0,1.9-0.6,3.5-1.9,4.7c-1.3,1.2-2.9,1.7-5,1.7H62C61.9,62,61.8,61.9,61.7,61.8z M65.5,58.7l3.2,0c0.9,0,1.7-0.3,2.2-1
				c0.6-0.6,0.9-1.5,0.9-2.6v-9c0-1.1-0.3-2-0.9-2.6c-0.6-0.6-1.3-1-2.3-1h-3.2c-0.1,0-0.2,0.1-0.2,0.2v15.9
				C65.3,58.7,65.4,58.7,65.5,58.7z"/>
		</defs>
		<clipPath id="SVGID_00000183220270752593679770000013186454033225187713_">
			<use xlink:href="#SVGID_00000176039140284099267990000010604983316491112584_"  style="overflow:visible;"/>
		</clipPath>
		<g style="clip-path:url(#SVGID_00000183220270752593679770000013186454033225187713_);">
			<polygon class="st4" points="52.5,26.1 42.2,7.4 39.2,24.1 36,42.6 59.9,60.9 67.9,53.9 			"/>
			<polygon class="st5" points="5.3,19.1 27.8,89.1 36,42.6 			"/>
			<polygon class="st1" points="36,42.6 27.8,89.1 59.9,60.9 			"/>
			<polygon class="st6" points="92.8,32.1 42.2,7.4 52.5,26.1 			"/>
			<polygon class="st7" points="42.2,7.4 5.3,19.1 39.2,24.1 			"/>
			<polygon class="st8" points="27.8,89.1 80.7,77 59.9,60.9 			"/>
			<polygon class="st9" points="67.9,53.9 92.8,32.1 52.5,26.1 			"/>
			<polygon class="st10" points="67.9,53.9 80.7,77 92.8,32.1 			"/>
			<polygon class="st11" points="59.9,60.9 80.7,77 67.9,53.9 			"/>
			<polygon class="st12" points="39.2,24.1 5.3,19.1 36,42.6 			"/>
			<polygon class="st13" points="52.5,26.1 42.2,7.4 39.2,24.1 			"/>
		</g>
	</g>
</g>
</svg>
