<svg width="52" height="52" viewBox="0 0 52 52" fill="none" xmlns="http://www.w3.org/2000/svg">
<g clip-path="url(#clip0_1_721)">
<path d="M40.9475 0.0180664H44.4933V7.29038C46.9174 7.32656 49.3053 7.32656 51.7294 7.29038C51.7656 8.52052 51.8379 9.78684 51.6932 11.0532C49.3053 10.9446 46.8812 10.9808 44.4933 11.017C44.4933 13.4411 44.5294 15.9014 44.4933 18.3617C43.2993 18.3255 42.1053 18.3255 40.9114 18.3255V11.017C38.4149 10.9446 35.9184 10.9808 33.422 10.9808V7.29038C35.9184 7.32656 38.4149 7.32656 40.9114 7.29038C40.9114 4.86627 40.9114 2.44217 40.9475 0.0180664Z" fill="#A8ABB2" stroke="#A8ABB2" stroke-width="0.094"/>
<path d="M0.171967 7.29028C9.14477 7.29028 18.1176 7.36264 27.1266 7.29028C27.1989 8.48424 27.1266 9.71439 27.1989 10.9445C19.4201 11.0169 11.6412 10.9807 3.86239 10.9807V47.8488C16.2 47.8488 28.5738 47.885 40.9114 47.8126V24.5485H44.4933C44.4933 33.5574 44.5656 42.5664 44.4933 51.5754C29.6954 51.5031 14.9337 51.5392 0.171967 51.5392C0.171967 51.5392 0.171967 7.29028 0.171967 7.29028Z" fill="#A8ABB2" stroke="#A8ABB2" stroke-width="0.094"/>
<path d="M14.9337 18.4341C18.2261 18.3618 21.4824 18.4341 24.7748 18.3979C24.7748 24.5125 24.811 30.627 24.7748 36.7415C26.7648 36.9586 28.7909 36.8139 30.7808 36.8501V40.4682C25.4984 40.432 20.2161 40.4682 14.9337 40.432C14.9699 39.2742 14.9699 38.0802 14.9337 36.8863C16.9598 36.8139 19.0221 36.8863 21.0844 36.8501C21.1206 31.8933 21.0844 26.9728 21.0844 22.016C19.0221 22.016 16.996 22.0522 14.9337 21.9798C14.9699 20.8221 14.9699 19.6281 14.9337 18.4341Z" fill="#A8ABB2" stroke="#A8ABB2" stroke-width="0.094"/>
</g>
<defs>
<clipPath id="clip0_1_721">
<rect width="51.6406" height="51.59" fill="white" transform="translate(0.15387)"/>
</clipPath>
</defs>
</svg>
