<svg width="107" height="36" viewBox="0 0 107 36" fill="none" xmlns="http://www.w3.org/2000/svg">
<path d="M45.1739 18.4618C45.1739 23.4588 41.2751 27.141 36.4904 27.141C31.7056 27.141 27.8068 23.4588 27.8068 18.4618C27.8068 13.4297 31.7056 9.78271 36.4904 9.78271C41.2751 9.78271 45.1739 13.4297 45.1739 18.4618ZM41.3727 18.4618C41.3727 15.3392 39.113 13.2027 36.4904 13.2027C33.8677 13.2027 31.6081 15.3392 31.6081 18.4618C31.6081 21.5531 33.8677 23.721 36.4904 23.721C39.113 23.721 41.3727 21.5492 41.3727 18.4618Z" fill="#A8ABB2"/>
<path d="M63.907 18.4618C63.907 23.4588 60.0082 27.141 55.2234 27.141C50.4387 27.141 46.5399 23.4588 46.5399 18.4618C46.5399 13.4336 50.4387 9.78271 55.2234 9.78271C60.0082 9.78271 63.907 13.4297 63.907 18.4618ZM60.1057 18.4618C60.1057 15.3392 57.8461 13.2027 55.2234 13.2027C52.6008 13.2027 50.3411 15.3392 50.3411 18.4618C50.3411 21.5531 52.6008 23.721 55.2234 23.721C57.8461 23.721 60.1057 21.5492 60.1057 18.4618Z" fill="#A8ABB2"/>
<path d="M81.8595 10.3071V25.8888C81.8595 32.2984 78.0894 34.9162 73.6325 34.9162C69.4371 34.9162 66.9121 32.1027 65.9598 29.8018L69.2693 28.4205C69.8586 29.8332 71.3026 31.5001 73.6286 31.5001C76.4815 31.5001 78.2495 29.7353 78.2495 26.4132V25.1649H78.1168C77.266 26.2175 75.6268 27.1371 73.5584 27.1371C69.2303 27.1371 65.2651 23.3571 65.2651 18.4932C65.2651 13.594 69.2303 9.78271 73.5584 9.78271C75.6229 9.78271 77.2621 10.7023 78.1168 11.7236H78.2495V10.311H81.8595V10.3071ZM78.5187 18.4932C78.5187 15.4371 76.4854 13.2027 73.8979 13.2027C71.2753 13.2027 69.0781 15.4371 69.0781 18.4932C69.0781 21.5179 71.2753 23.721 73.8979 23.721C76.4854 23.721 78.5187 21.5179 78.5187 18.4932Z" fill="#A8ABB2"/>
<path d="M87.8111 1.17383V26.6086H84.1035V1.17383H87.8111Z" fill="#A8ABB2"/>
<path d="M102.259 21.3184L105.209 23.2905C104.257 24.7032 101.962 27.1371 97.9971 27.1371C93.0797 27.1371 89.4073 23.3258 89.4073 18.4579C89.4073 13.2966 93.1109 9.77881 97.5717 9.77881C102.064 9.77881 104.261 13.3632 104.979 15.3001L105.373 16.2862L93.8017 21.0914C94.6876 22.8327 96.0653 23.721 97.9971 23.721C99.9329 23.721 101.275 22.7662 102.259 21.3184ZM93.1773 18.1958L100.912 14.9753C100.487 13.8914 99.207 13.1362 97.7005 13.1362C95.7687 13.1362 93.0797 14.8462 93.1773 18.1958V18.1958Z" fill="#A8ABB2"/>
<path d="M13.7726 16.2038V12.5217H26.1481C26.2691 13.1634 26.3316 13.9225 26.3316 14.7443C26.3316 17.5069 25.5783 20.923 23.1508 23.3569C20.7897 25.8221 17.7729 27.1369 13.7765 27.1369C6.36917 27.1369 0.140442 21.0873 0.140442 13.6604C0.140442 6.2334 6.36917 0.183838 13.7765 0.183838C17.8744 0.183838 20.7936 1.79601 22.9869 3.89732L20.3955 6.49558C18.8227 5.01645 16.6919 3.86601 13.7726 3.86601C8.36346 3.86601 4.13292 8.23688 4.13292 13.6604C4.13292 19.0838 8.36346 23.4547 13.7726 23.4547C17.2812 23.4547 19.2794 22.0421 20.5594 20.7586C21.5976 19.7177 22.2805 18.2308 22.5498 16.1999L13.7726 16.2038V16.2038Z" fill="#A8ABB2"/>
</svg>
