<?xml version="1.0" encoding="utf-8"?>
<!-- Generator: Adobe Illustrator 26.0.3, SVG Export Plug-In . SVG Version: 6.00 Build 0)  -->
<svg version="1.1" id="Layer_1" xmlns="http://www.w3.org/2000/svg" xmlns:xlink="http://www.w3.org/1999/xlink" x="0px" y="0px"
	 viewBox="0 0 107 36" style="enable-background:new 0 0 107 36;" xml:space="preserve">
<style type="text/css">
	.st0{clip-path:url(#SVGID_00000036969862414719709690000001521587912347941286_);}
	.st1{fill:#A8ABB2;stroke:#A8ABB2;stroke-width:9.400000e-02;}
</style>
<g>
	<defs>
		<rect id="SVGID_1_" x="36.1" y="0.5" width="34.4" height="34.4"/>
	</defs>
	<clipPath id="SVGID_00000028324091996303623730000005158073015541267121_">
		<use xlink:href="#SVGID_1_"  style="overflow:visible;"/>
	</clipPath>
	<g style="clip-path:url(#SVGID_00000028324091996303623730000005158073015541267121_);">
		<path class="st1" d="M63.3,0.6h2.4v4.8c1.6,0,3.2,0,4.8,0c0,0.8,0.1,1.7,0,2.5c-1.6-0.1-3.2,0-4.8,0c0,1.6,0,3.3,0,4.9
			c-0.8,0-1.6,0-2.4,0V7.9c-1.7,0-3.3,0-5,0V5.4c1.7,0,3.3,0,5,0C63.3,3.8,63.3,2.2,63.3,0.6z"/>
		<path class="st1" d="M63.3,16.9h2.4c0,6,0,12,0,18c-9.9,0-19.7,0-29.5,0V5.4c6,0,12,0,18,0c0,0.8,0,1.6,0,2.4
			c-5.2,0-10.4,0-15.5,0v24.6c8.2,0,16.5,0,24.7,0V16.9"/>
		<path class="st1" d="M46,12.8c2.2,0,4.4,0,6.6,0c0,4.1,0,8.1,0,12.2c1.3,0.1,2.7,0,4,0.1v2.4c-3.5,0-7,0-10.6,0c0-0.8,0-1.6,0-2.4
			c1.3,0,2.7,0,4.1,0c0-3.3,0-6.6,0-9.9c-1.4,0-2.7,0-4.1,0C46,14.4,46,13.6,46,12.8z"/>
	</g>
</g>
</svg>
