<svg width="138" height="25" viewBox="0 0 138 25" fill="none" xmlns="http://www.w3.org/2000/svg">
<g clip-path="url(#clip0_1_730)">
<path d="M37.2473 7.14978C37.6171 7.14978 37.9341 7.44409 37.9341 7.82495V20.7223C37.9341 21.0858 37.5995 21.3801 37.2473 21.3801H35.4686C35.134 21.3801 34.7994 21.1204 34.7994 20.7569V19.5624C33.9012 20.8608 32.3514 21.761 30.0972 21.761C26.3285 21.761 24.0038 19.3027 24.0038 15.6499V7.79032C24.0038 7.42677 24.3384 7.13247 24.6907 7.13247H26.4694C26.8392 7.13247 27.1386 7.42677 27.1386 7.79032V15.1478C27.1386 17.5196 28.4066 19.0949 30.9073 19.0949C33.3553 19.0949 34.7994 17.4676 34.7994 15.1825V7.79032C34.7994 7.42677 35.134 7.13247 35.4686 7.13247H37.2473V7.14978ZM11.0069 0C4.91348 0 0 4.65688 0 10.8718C0 17.1041 4.91348 21.7437 11.0069 21.7437C12.0459 21.7437 13.0498 21.6052 14.0008 21.3455L15.1983 24.3751C15.3216 24.704 15.5681 24.9117 16.0084 24.9117H17.9104C18.3683 24.9117 18.7029 24.6174 18.4916 24.0461L16.9418 20.0817C19.9885 18.1947 22.0138 14.8535 22.0138 10.8545C22.0138 4.65688 17.1003 0 11.0069 0ZM15.7971 17.1906L14.4058 13.6417C14.2825 13.3474 14.036 13.0704 13.5077 13.0704H11.6937C11.2358 13.0704 10.8836 13.3647 11.0949 13.936L12.9265 18.5929C12.3277 18.7487 11.6761 18.818 11.0069 18.818C6.5513 18.818 3.38132 15.3729 3.38132 10.8718C3.38132 6.37075 6.5513 2.9257 11.0069 2.9257C15.4625 2.9257 18.6325 6.37075 18.6325 10.8718C18.6325 13.5032 17.5582 15.7538 15.7971 17.1906ZM137.947 20.653C138.106 21.0166 137.912 21.3628 137.472 21.3628H135.482C135.112 21.3628 134.812 21.1897 134.689 20.8261L131.008 11.0969L127.275 20.8261C127.116 21.207 126.852 21.3628 126.482 21.3628H124.704C124.334 21.3628 124.07 21.207 123.911 20.8261L120.142 11.0449L116.426 20.8261C116.268 21.1897 116.004 21.3628 115.634 21.3628H113.767C113.397 21.3628 113.133 21.1897 112.975 20.8261L109.294 11.0449L105.49 20.8261C105.332 21.207 105.067 21.3628 104.698 21.3628H102.919C102.549 21.3628 102.285 21.207 102.126 20.8261L98.4104 11.0449L94.6945 20.8261C94.5712 21.1897 94.2718 21.3628 93.902 21.3628H91.9648C91.5069 21.3628 91.3308 20.9992 91.4893 20.653L96.526 7.70376C96.6845 7.3229 96.9487 7.13247 97.3185 7.13247H99.4847C99.8545 7.13247 100.119 7.30559 100.277 7.70376L103.905 17.156L107.498 7.70376C107.656 7.3229 107.92 7.13247 108.29 7.13247H110.421C110.791 7.13247 111.055 7.30559 111.214 7.70376L114.771 17.156L118.328 7.70376C118.487 7.3229 118.751 7.13247 119.121 7.13247H121.27C121.639 7.13247 121.904 7.30559 122.062 7.70376L125.672 17.156L129.194 7.70376C129.353 7.3229 129.617 7.13247 129.987 7.13247H132.153C132.523 7.13247 132.787 7.30559 132.946 7.70376L137.947 20.653ZM54.4885 7.14978H52.7098C52.34 7.14978 52.023 7.44409 52.023 7.82495V9.00215C51.1248 7.66914 49.3637 6.71699 47.2856 6.71699C43.3583 6.71699 39.9946 9.76387 39.9946 14.213C39.9946 18.7141 43.3759 21.7437 47.268 21.7437C49.3813 21.7437 51.0896 20.7915 52.0406 19.4585V20.7049C52.0406 21.0685 52.3752 21.3628 52.7274 21.3628H54.5061C54.8759 21.3628 55.1753 21.0685 55.1753 20.7049V7.82495C55.1577 7.44409 54.8583 7.14978 54.4885 7.14978ZM47.6202 18.9045C45.0314 18.9045 43.1822 16.8271 43.1822 14.2476C43.1822 11.6335 45.0138 9.62537 47.6202 9.62537C50.1914 9.62537 52.0582 11.6335 52.0582 14.2476C52.0406 16.8444 50.1738 18.9045 47.6202 18.9045ZM75.7098 19.3546C76.0972 19.822 75.7626 20.1856 75.5513 20.3414C74.3185 21.2589 72.6807 21.761 70.902 21.761C66.4112 21.761 63.4173 18.5237 63.4173 14.2649C63.4173 10.0062 66.4112 6.7343 70.902 6.7343C72.6807 6.7343 74.3009 7.23634 75.5513 8.15387C75.7626 8.30968 76.062 8.62129 75.7098 9.14064L74.8645 10.3005C74.5299 10.7506 74.1424 10.6295 73.8078 10.4217C73.0153 9.9543 72.0819 9.55613 71.0077 9.55613C68.3836 9.55613 66.6401 11.6335 66.6401 14.2649C66.6401 16.8963 68.3836 18.9564 71.0077 18.9564C72.0995 18.9564 72.9625 18.541 73.755 18.0909C74.0896 17.9177 74.4418 17.7619 74.8116 18.2467L75.7098 19.3546ZM84.0926 6.75161C79.866 6.75161 76.5023 10.0062 76.5023 14.2476C76.5023 18.5237 79.8836 21.7437 84.0926 21.7437C88.3193 21.7437 91.683 18.5063 91.683 14.2476C91.7006 10.0235 88.3193 6.75161 84.0926 6.75161ZM84.0926 18.8872C81.5038 18.8872 79.6547 16.8444 79.6547 14.2649C79.6547 11.6509 81.4862 9.64269 84.0926 9.64269C86.6815 9.64269 88.5306 11.6509 88.5306 14.2649C88.5306 16.8444 86.6991 18.8872 84.0926 18.8872ZM60.7228 0.38086C61.1102 0.38086 61.392 0.709785 61.392 1.05602V20.6876C61.392 21.0512 61.1279 21.3628 60.7228 21.3628H58.9441C58.5743 21.3628 58.2573 21.0339 58.2573 20.6876V1.07333C58.2573 0.709785 58.5919 0.398172 58.9441 0.398172H60.7228" fill="#A8ABB2"/>
</g>
<defs>
<clipPath id="clip0_1_730">
<rect width="138" height="24.929" fill="white"/>
</clipPath>
</defs>
</svg>
