<svg width="127" height="20" viewBox="0 0 127 20" fill="none" xmlns="http://www.w3.org/2000/svg">
<path d="M105.202 15.0714H105.104L100.956 0.642884H94.2649V18.8327H98.6974L98.4477 3.90571H98.5452L102.999 18.8327H109.419V0.64199H104.957L105.202 15.0714ZM20.0737 0.64199L16.7357 19.0242H21.6066L24.0748 2.33873H24.1777L26.5805 19.0251H31.4229L28.1001 0.64199H20.0737ZM47.32 0.643779L45.0934 14.6983H44.9923L42.7765 0.643779H35.4231L35.024 19.0242H39.5325L39.6452 2.49444H39.7473L42.7586 19.0242H47.3316L50.3438 2.49981L50.4441 2.49444L50.5613 19.0242H55.0716L54.6734 0.643779H47.32ZM5.56546 5.37067C5.48045 4.99481 5.50103 4.61895 5.54667 4.41133C5.67643 3.82069 6.06661 3.17368 7.19508 3.17368C8.25286 3.17368 8.86856 3.84128 8.86856 4.8382V5.97384H13.3708V4.69054C13.3708 0.680471 9.84311 0.0549316 7.28905 0.0549316C4.08439 0.0549316 1.46769 1.14045 0.985336 4.13928C0.853785 4.94469 0.837677 5.68299 1.02919 6.61369C1.81223 10.3705 8.21707 11.4587 9.14687 13.8347C9.32138 14.2777 9.265 14.8522 9.17909 15.1994C9.03322 15.8008 8.62783 16.4263 7.42418 16.4263C6.29839 16.4263 5.6111 15.7686 5.6111 14.7654L5.60842 12.9818H0.774139L0.771454 14.4029C0.771454 18.5034 3.93584 19.7357 7.32485 19.7357C10.5912 19.7357 13.2688 18.6099 13.7019 15.5413C13.9221 13.9501 13.7601 12.9067 13.6823 12.5174C12.9189 8.66661 6.08003 7.52829 5.56546 5.37067ZM64.2265 5.41362C64.1379 5.04671 64.163 4.67443 64.205 4.47129C64.3312 3.88423 64.7178 3.24437 65.8364 3.24437C66.8817 3.24437 67.4956 3.90213 67.4956 4.88563V6.01321H71.9495V4.74155C71.9495 0.7807 68.454 0.156951 65.9331 0.156951C62.7562 0.156951 60.1618 1.21831 59.6902 4.19834C59.5587 5.00018 59.5381 5.73311 59.7314 6.65038C60.5073 10.3678 66.8486 11.448 67.7712 13.798C67.9395 14.241 67.8885 14.8057 67.8061 15.1502C67.6594 15.756 67.254 16.3628 66.0673 16.3628C64.9469 16.3628 64.2721 15.7149 64.2721 14.7224L64.2686 12.9523H59.4772V14.3609C59.4772 18.4193 62.6139 19.6372 65.9698 19.6372C69.1959 19.6372 71.8511 18.5213 72.2762 15.4849C72.4945 13.9143 72.3334 12.8798 72.2574 12.4923C71.5012 8.68271 64.7276 7.55066 64.2265 5.41362ZM84.6742 14.2365C84.6778 14.4701 84.6706 14.7403 84.6321 14.9372C84.5426 15.3945 84.1569 16.2599 82.9032 16.2599C81.6539 16.2599 81.2637 15.3945 81.1742 14.9372C81.1357 14.7403 81.1268 14.4701 81.1286 14.2365V0.6402H76.5717V13.815C76.5646 14.156 76.5977 14.8459 76.6138 15.0294C76.9234 18.456 79.5867 19.563 82.9023 19.563C86.2143 19.563 88.8767 18.456 89.1961 15.0294C89.2123 14.8459 89.2472 14.1551 89.2418 13.815V0.6402H84.6733V14.2365H84.6742ZM120.551 8.68987V11.3817H122.397V14.0477C122.402 14.2795 122.394 14.5354 122.355 14.7457C122.275 15.2406 121.815 16.0755 120.514 16.0755C119.21 16.0755 118.752 15.2397 118.668 14.7457C118.633 14.5354 118.622 14.2795 118.628 14.0477V5.63735C118.628 5.33845 118.647 5.01181 118.701 4.77466C118.797 4.32184 119.185 3.44036 120.496 3.44036C121.875 3.44036 122.216 4.37106 122.299 4.77466C122.351 5.02971 122.355 5.46911 122.355 5.46732V6.50272H126.899V5.88882C126.898 5.88882 126.916 5.2606 126.863 4.68696C126.529 1.22994 123.727 0.141737 120.534 0.141737C117.339 0.141737 114.603 1.23889 114.207 4.68696C114.168 4.98407 114.128 5.56218 114.128 5.88882L114.126 13.6226C114.128 13.9689 114.139 14.2249 114.189 14.837C114.486 18.1839 117.339 19.3831 120.53 19.3831C123.723 19.3831 126.576 18.1839 126.875 14.837C126.924 14.224 126.932 13.968 126.933 13.6226V8.68987H120.551Z" fill="#A8ABB2"/>
</svg>
