<svg width="92" height="24" viewBox="0 0 92 24" fill="none" xmlns="http://www.w3.org/2000/svg">
<path d="M62.4118 8.3246L55.9712 7.94236V14.9612C55.9712 17.1574 54.8961 17.8263 51.1645 17.8263H46.033C42.9528 17.8263 41.6469 16.9169 41.6469 14.9612V7.27504L35.1138 6.79725V15.5329H34.9753C34.6026 13.0038 33.6693 10.0431 27.4627 9.61305L7.02588 8.22904C7.02588 11.4271 9.26355 13.3367 12.7626 13.7189L26.9961 15.1969C28.1157 15.2924 28.9551 15.6269 28.9551 16.5825C28.9551 17.6304 28.1157 17.726 26.8082 17.726H6.79335V8.17967L0.261902 7.74965V23.8896H26.8591C32.7838 23.8896 34.6981 20.7393 34.9785 18.113H35.1186C35.8672 22.2666 39.4124 23.8896 45.431 23.8896H52.0564C59.1039 23.8896 62.4166 21.6933 62.4166 16.5363L62.4134 8.3246H62.4118ZM91.3407 6.12993V0.0141602H69.4099C64.8454 0.0141602 62.7845 2.90641 62.4246 5.69673C62.4246 5.72858 62.4166 5.76044 62.4118 5.79229V0.0141602H55.9712V6.12356H91.3391L91.3407 6.12993V6.12993Z" fill="#A8ABB2"/>
</svg>
