<?xml version="1.0" encoding="utf-8"?>
<!-- Generator: Adobe Illustrator 26.0.3, SVG Export Plug-In . SVG Version: 6.00 Build 0)  -->
<svg version="1.1" id="Layer_1" xmlns="http://www.w3.org/2000/svg" xmlns:xlink="http://www.w3.org/1999/xlink" x="0px" y="0px"
	 viewBox="0 0 942.6 1000" style="enable-background:new 0 0 942.6 1000;" xml:space="preserve">
<style type="text/css">
	.st0{fill:#A8ABB2;stroke:#A8ABB2;stroke-width:9.400000e-02;}
</style>
<g>
	<path class="st0" d="M197,899c-39.6,0-69.4-29.7-69.4-71l0,0c0-38,28.1-67.7,64.4-67.7c3.3,0,6.6,0,9.9,0
		c19.8,3.3,33,9.9,46.3,23.1l1.7,1.6l-16.5,18.2l-3.3-3.3c-8.3-8.3-16.5-14.9-31.4-16.5c-1.6,0-3.3,0-5,0c-21.5,0-38,18.2-38,43l0,0
		c0,26.4,16.5,46.3,41.3,46.3h1.6c9.9,0,19.8-3.3,26.4-8.3l1.6-19.8l-31.4-1.6v-23.1l54.5,3.3l-3.3,52.9l-1.7,1.7
		C238.3,889.1,220.1,899,197,899L197,899z"/>
	<path class="st0" d="M393.6,899h-29.7l-1.6-1.7c-5-8.3-8.3-11.6-13.2-19.8c-24.8,0-36.3-1.7-61.1-3.3c-5,8.3-8.3,13.2-13.2,21.5
		v1.6h-28.1l3.3-4.9c18.2-31.4,36.3-62.8,56.2-92.5l1.6-1.7h1.7c8.3,1.7,11.6,1.7,19.8,3.3h1.7l1.7,1.7
		c16.5,28.1,36.3,57.8,57.8,89.2L393.6,899L393.6,899z M299.4,856c14.9,1.6,24.8,1.6,39.6,3.3c-8.3-11.6-11.6-19.8-19.8-33
		C311,836.2,307.7,842.8,299.4,856L299.4,856z"/>
	<path class="st0" d="M426.6,899h-28.1v-89.2h3.3c8.3,0,14.9,0,24.8,1.6h1.7l1.6,1.6c13.2,13.2,23.1,21.5,34.7,31.4l8.3,6.6
		c16.5-16.5,24.8-23.1,41.3-41.3l1.7-1.6h1.7c9.9,0,14.9-1.7,23.1-1.7h3.3v94.2h-28.1v-59.5c-14.9,14.9-34.7,33-41.3,38l-1.6,1.6
		l-1.7-1.6c-5-5-24.8-23.1-41.3-36.3L426.6,899L426.6,899z"/>
	<path class="st0" d="M553.8,899v-95.8h3.3c34.7-5,69.4-11.6,104.1-19.8l5-1.7v21.5h-3.3c-26.4,5-52.9,9.9-79.3,14.9v21.5
		c28.1-3.3,41.3-5,67.7-8.3h5v21.5H653c-28.1,3.3-41.3,5-69.4,6.6v21.5c26.4,0,52.9-1.6,79.3-3.3h3.3V899h-3.3
		c-34.7,0-69.4,0-104.1,0H553.8L553.8,899z"/>
	<path class="st0" d="M735.6,899L735.6,899c-1.6,0-5,0-6.6,0c-21.5-1.7-41.3-9.9-56.2-23.1l-3.3-1.7L686,856l3.3,1.6
		c13.2,11.6,26.4,16.5,41.3,16.5c14.9,0,24.8-5,24.8-14.9l0,0c0-8.3-5-13.2-33-18.2c-24.8-5-46.3-11.6-46.3-38
		c0-21.5,19.8-39.6,47.9-43c21.5-1.6,38,1.6,56.2,11.6l3.3,1.6l-18.2,23.1l-3.3-1.7c-13.2-8.3-26.4-11.6-39.6-9.9
		c-13.2,1.7-21.5,6.6-21.5,14.9c0,8.3,5,11.6,33,16.5c36.3,6.6,52.9,19.8,52.9,41.3l0,0c0,13.2-5,23.1-14.9,29.7
		C763.6,895.7,750.4,899,735.6,899L735.6,899z"/>
	<polygon class="st0" points="823.1,327.4 816.5,327.4 811.5,327.4 806.6,327.4 806.6,332.4 806.6,908.9 106.1,908.9 106.1,332.4 
		106.1,327.4 101.2,327.4 96.2,327.4 91.3,327.4 91.3,335.7 91.3,922.1 91.3,927.1 96.2,927.1 818.2,927.1 823.1,927.1 823.1,922.1 
		823.1,334 	"/>
	<path class="st0" d="M846.2,226.6l-61.1-24.8l-1.6-28.1l-56.2-26.4l-1.6-34.7c0,0-186.7-74.3-272.6-74.3
		c-77.6,0-254.4,69.4-266,72.7l-1.6,31.4l-54.5,23.1l-1.6,29.7l-69.4,28.1c0,0-21.5,351.9,391.5,533.6
		C862.8,591.7,846.2,226.6,846.2,226.6z M808.2,251.4c0,0-3.3,80.9-47.9,176.8C719,519,633.1,641.3,454.7,715.6
		C268,626.4,182.1,505.8,144.1,419.9c-41.3-94.2-39.6-166.8-39.6-168.5v-1.6l64.4-23.1l1.6-34.7l56.2-19.8l1.6-36.3h1.7
		c1.6,0,148.7-56.2,223-56.2c74.3,0,229.6,61.1,231.3,61.1h1.7l1.7,34.7l52.9,19.8l1.7,29.7l66.1,24.8L808.2,251.4L808.2,251.4z"/>
	<path class="st0" d="M606.7,363.7c14.9-8.3,64.4-41.3,62.8-84.3c-3.3-56.2-66.1-94.2-66.1-94.2c-51.2-31.4-114-46.3-135.5-49.6
		v528.6c71-44.6,128.9-89.2,163.5-138.8c28.1-38,43-62.8,33-110.7C654.6,373.7,606.7,363.7,606.7,363.7z M510.9,190.3h1.7
		c5,1.7,107.4,31.4,109,85.9c0,1.7,5,57.8-109,77.6h-1.7L510.9,190.3L510.9,190.3z M568.7,533.9c-26.4,26.4-52.8,42.9-54.5,42.9l0,0
		h0l-1.6,3.3V436.4c1.6-1.7,49.6-46.3,80.9-43c29.7,3.3,29.7,44.6,29.7,44.6C623.2,467.8,605,499.2,568.7,533.9z"/>
	<path class="st0" d="M593.5,395.1C593.5,395.1,593.5,395.1,593.5,395.1C593.5,395.1,593.5,395.1,593.5,395.1
		C593.5,395.1,593.5,395.1,593.5,395.1C593.5,395.1,593.5,395.1,593.5,395.1z"/>
	<path class="st0" d="M301.1,547.1c-59.5-51.2-117.3-211.5-122.2-285.8c11.6-5,34.7-9.9,46.3-9.9c0,0,16.5,128.9,79.3,216.4
		l14.9-31.4c0,0-46.3-161.9-34.7-237.9c14.9-5,34.7-9.9,47.9-11.6c0,0,8.3,232.9,62.8,320.5V144c13.2-6.6,31.4-9.9,46.3-11.6v535.2
		c0,0-56.2-39.6-104.1-170.2L301.1,547.1z"/>
	<path class="st0" d="M833,887.4h29.7v5h-11.6v31.4h-5v-31.4h-11.6v-5H833z"/>
	<path class="st0" d="M894.1,923.8v-21.5c0-1.6,0-5,0-8.3l0,0l-9.9,29.7h-5l-9.9-29.7l0,0c0,3.3,0,8.3,0,8.3v21.5h-5v-36.3h6.6
		l9.9,29.7l0,0l9.9-29.7h6.6v36.3L894.1,923.8L894.1,923.8z"/>
</g>
</svg>
